<svg xmlns="http://www.w3.org/2000/svg" style="display: none;">
  
    <symbol id="icon-dribbble" viewBox="0 0 512 512">
      <path d="m329 429c-8-46-21-94-40-143l0 0-1 1c-3 1-7 2-12 4-5 2-15 7-29 14-14 8-27 15-39 24-12 8-25 19-38 32-13 14-22 28-29 43l-4-3c35 28 74 42 119 42 25 0 50-5 73-14z m-53-174c-4-9-9-20-15-32-59 18-123 27-192 27 0 1 0 3 0 6 0 24 4 46 12 68 9 21 20 40 36 57 9-17 21-33 35-47 14-15 27-27 41-36 13-9 25-17 37-23 12-7 21-11 28-14l11-4c1 0 2 0 4-1 1 0 3 0 3-1z m-30-60c-23-41-46-77-70-108-26 12-49 30-67 53-18 23-30 49-36 77 57 0 115-7 173-22z m195 91c-40-12-79-14-117-9 17 46 29 91 37 134 21-14 39-32 53-54 14-22 23-45 27-71z m-230-212c0 0 0 0 0 0 0 0 0 0 0 0z m169 41c-36-31-77-46-124-46-14 0-29 1-44 5 25 32 48 69 70 109 13-5 26-11 37-17 12-7 21-13 28-18 6-5 13-10 18-16 6-6 10-10 11-12z m63 139c0-44-14-83-42-117l0 0c-2 2-4 5-6 7-2 3-6 7-12 13-7 6-13 12-21 17-7 6-16 12-28 19-12 7-25 13-38 18 5 10 9 19 13 27 0 1 1 3 2 5 1 2 1 4 2 5 7-1 14-2 21-2 7 0 14-1 21-1 7 0 13 1 20 1 6 0 12 1 18 1 6 0 11 1 16 2 5 0 10 1 14 1 4 1 8 2 10 2 3 1 6 1 8 1z m32 2c0 40-9 77-29 110-20 34-46 60-80 80-33 20-70 29-110 29-40 0-77-9-110-29-34-20-60-46-80-80-20-33-29-70-29-110 0-40 9-77 29-110 20-34 46-60 80-80 33-20 70-29 110-29 40 0 77 9 110 29 34 20 60 46 80 80 20 33 29 70 29 110z"/>
    </symbol>
  
    <symbol id="icon-github" viewBox="0 0 512 512">
      <path d="m475 256c0 48-14 91-41 129-28 38-64 65-109 79-5 1-8 1-11-2-2-2-3-5-3-8l0-61c0-18-5-32-15-40 11-1 20-3 29-5 9-3 18-6 27-11 9-6 17-12 23-19 6-8 11-18 15-30 4-13 6-27 6-43 0-23-8-43-23-59 7-18 7-37-2-59-5-1-13 0-23 4-10 3-19 8-26 12l-11 7c-18-5-36-7-55-7-19 0-37 2-55 7-3-2-7-5-12-8-5-3-13-6-24-11-11-4-19-5-24-4-9 22-9 41-2 59-15 16-23 36-23 59 0 16 2 30 6 42 4 13 9 23 15 30 6 8 14 14 23 20 9 5 18 8 27 11 8 2 18 4 29 5-8 7-12 17-14 29-4 2-8 4-13 5-4 1-10 1-16 1-6 0-13-2-19-6-6-4-11-10-16-18-3-6-8-11-14-15-5-4-10-6-14-7l-5-1c-4 0-7 1-9 2-1 1-2 2-1 3 0 1 1 3 2 4 2 1 3 2 4 3l2 2c4 2 8 5 13 11 4 5 7 10 9 14l2 7c3 7 7 13 13 17 6 5 12 8 19 9 7 1 14 2 20 2 6 0 12 0 16-1l6-1c0 7 0 16 1 25 0 10 0 15 0 16 0 3-2 6-4 8-2 3-6 3-11 2-45-14-81-41-109-79-27-38-41-81-41-129 0-40 9-77 29-110 20-34 46-60 80-80 33-20 70-29 110-29 40 0 77 9 110 29 34 20 60 46 80 80 20 33 29 70 29 110z"/>
    </symbol>
  
    <symbol id="icon-envelope" viewBox="0 0 512 512">
      <path d="m512 203l0 227c0 12-4 23-13 32-9 9-20 13-33 13l-420 0c-13 0-24-4-33-13-9-9-13-20-13-32l0-227c8 9 18 17 29 25 69 47 116 79 142 98 11 8 20 15 26 19 7 4 16 9 27 14 12 4 22 7 32 7l0 0c10 0 20-3 32-7 11-5 20-10 27-14 6-4 15-11 26-19 33-23 80-56 142-98 11-8 21-16 29-25z m0-84c0 15-5 29-14 43-9 14-21 25-35 35-71 50-116 81-134 93-1 1-6 4-12 9-6 4-11 8-15 11-4 2-9 5-15 9-6 3-11 6-16 8-6 1-10 2-15 2l0 0c-5 0-9-1-15-2-5-2-10-5-16-8-6-4-11-7-15-9-4-3-9-7-15-11-6-5-11-8-12-9-18-12-43-30-75-52-33-23-52-36-59-41-12-8-23-19-33-33-11-14-16-27-16-39 0-15 4-27 12-37 8-10 19-15 34-15l420 0c13 0 23 5 32 14 9 9 14 19 14 32z"/>
    </symbol>
  
</svg>
