<?xml version="1.0" encoding="UTF-8" standalone="no"?>
<svg width="94px" height="100px" viewBox="0 0 94 100" version="1.1" xmlns="http://www.w3.org/2000/svg" xmlns:xlink="http://www.w3.org/1999/xlink">
    <!-- Generator: Sketch 3.7.2 (28276) - http://www.bohemiancoding.com/sketch -->
    <title>Logo__Flip--BW</title>
    <desc>Created with Sketch.</desc>
    <defs></defs>
    <g id="Assets" stroke="none" stroke-width="1" fill="none" fill-rule="evenodd">
        <g id="Logos---Companies" fill="#CCCCCC">
            <g id="Logos/Flip">
                <path d="M52.4539216,11.6231021 L85.3901281,44.5608945 L93.3676903,36.5827059 L59.8527252,3.06560945 C57.876843,1.08907176 55.2491696,0 52.454922,0 C49.6596739,0 47.0320006,1.08907176 45.0561183,3.06510919 L3.02284975,45.1006778 C1.07397954,47.0507016 0,49.6430627 0,52.40001 C0,55.1574577 1.07397954,57.7498186 3.02284975,59.6988419 L40.2544743,96.9338904 C42.2583691,98.9379425 44.9185568,100 47.6337692,100 C48.9808707,100 50.342979,99.7383627 51.6425593,99.1990796 C55.5628097,97.5752271 58.0954406,93.7847371 58.0954406,89.5425098 L58.0954406,49.1252908 L68.9147715,59.9464719 L76.8923338,51.9682834 C76.8923338,51.9682834 67.1830938,42.2576848 62.3284738,37.4023854 C59.0372899,34.1107409 52.454922,27.5274519 52.454922,27.5274519 L28.0335174,51.9507741 L36.0110796,59.9289628 L46.8119022,49.1272919 L46.8119022,87.536957 L11.6797152,52.4005102 L52.4539216,11.6231021 Z" id="Flip"></path>
            </g>
        </g>
    </g>
</svg>