<?xml version="1.0" encoding="UTF-8" standalone="no"?>
<svg width="101px" height="100px" viewBox="0 0 101 100" version="1.1" xmlns="http://www.w3.org/2000/svg" xmlns:xlink="http://www.w3.org/1999/xlink">
    <!-- Generator: Sketch 3.7.2 (28276) - http://www.bohemiancoding.com/sketch -->
    <title>Logo__Coolhouse</title>
    <desc>Created with Sketch.</desc>
    <defs></defs>
    <g id="Assets" stroke="none" stroke-width="1" fill="none" fill-rule="evenodd">
        <g id="Logos---Companies" transform="translate(-144.000000, -120.000000)">
            <g id="Logos/Coolhouse--Active" transform="translate(144.000000, 120.000000)">
                <g>
                    <g id="Group" transform="translate(22.115385, 24.038462)" fill="#69ABB1">
                        <path d="M39.1346154,12.9807692 C38.3653846,12.2115385 37.3076923,11.9230769 36.5384615,11.1538462 C34.7115385,10.0961538 32.5,9.71153846 30.5769231,9.32692308 L30.5769231,9.32692308 C30.2884615,9.32692308 30,9.23076923 29.8076923,9.23076923 L29.7115385,9.23076923 C29.5192308,9.23076923 29.2307692,9.23076923 29.0384615,9.13461538 L28.8461538,9.13461538 L28.2692308,9.13461538 L27.8846154,9.13461538 L27.5,9.13461538 L27.0192308,9.13461538 L26.7307692,9.13461538 C26.5384615,9.13461538 26.25,9.13461538 26.0576923,9.23076923 L25.8653846,9.23076923 C25.5769231,9.23076923 25.3846154,9.32692308 25.0961538,9.32692308 L25,9.32692308 C24.7115385,9.42307692 24.4230769,9.42307692 24.2307692,9.51923077 L24.2307692,9.51923077 L24.2307692,9.51923077 C23.9423077,9.61538462 23.6538462,9.61538462 23.4615385,9.71153846 C23.4615385,9.71153846 23.4615385,9.71153846 23.3653846,9.71153846 C23.1730769,9.80769231 22.8846154,9.80769231 22.6923077,9.90384615 C22.5961538,9.90384615 22.5961538,9.90384615 22.5,10 C22.3076923,10.0961538 22.2115385,10.0961538 22.0192308,10.1923077 C21.9230769,10.1923077 21.8269231,10.2884615 21.6346154,10.2884615 C21.5384615,10.2884615 21.5384615,10.3846154 21.4423077,10.3846154 C15.3846154,12.7884615 13.6538462,19.1346154 12.8846154,25.2884615 C12.7884615,26.3461538 12.6923077,27.3076923 12.5961538,28.3653846 C12.5,29.3269231 12.4038462,30.2884615 12.3076923,31.1538462 C12.3076923,31.3461538 12.3076923,31.5384615 12.4038462,31.7307692 C12.7884615,32.6923077 13.2692308,33.5576923 13.8461538,34.4230769 C14.4230769,35.2884615 15.0961538,36.1538462 15.7692308,36.9230769 C22.6923077,46.0576923 35,44.6153846 42.1153846,36.1538462 C42.8846154,35.3846154 43.5576923,34.6153846 43.9423077,33.5576923 C44.7115385,31.5384615 45.0961538,29.3269231 45,27.2115385 C45,26.1538462 44.9038462,25.0961538 44.8076923,24.1346154 C44.0384615,20 42.1153846,15.9615385 39.1346154,12.9807692 M28.6538462,41.8269231 C26.6346154,42.3076923 24.8076923,41.25 22.8846154,40.7692308 C21.9230769,40.3846154 21.0576923,39.7115385 20.0961538,39.3269231 C18.6538462,38.4615385 17.2115385,37.5961538 16.4423077,35.9615385 C15.7692308,35.1923077 15.1923077,34.4230769 14.7115385,33.5576923 C14.2307692,32.6923077 13.75,31.7307692 13.4615385,30.7692308 L13.4615385,30.0961538 C13.5576923,29.3269231 13.6538462,28.5576923 13.75,27.7884615 C14.4230769,22.4038462 15,16.5384615 19.3269231,12.8846154 C20.0961538,12.4038462 20.9615385,11.9230769 21.8269231,11.5384615 C21.9230769,11.5384615 21.9230769,11.4423077 22.0192308,11.4423077 C22.1153846,11.4423077 22.2115385,11.3461538 22.3076923,11.3461538 C22.5,11.25 22.5961538,11.25 22.7884615,11.1538462 L22.8846154,11.1538462 C23.0769231,11.0576923 23.3653846,10.9615385 23.5576923,10.9615385 L23.5576923,10.9615385 C23.8461538,10.8653846 24.0384615,10.8653846 24.3269231,10.7692308 C24.6153846,10.6730769 24.8076923,10.6730769 25.0961538,10.5769231 L25.0961538,10.5769231 C25.3846154,10.5769231 25.5769231,10.4807692 25.8653846,10.4807692 L25.9615385,10.4807692 C26.1538462,10.4807692 26.3461538,10.3846154 26.6346154,10.3846154 L26.9230769,10.3846154 L27.4038462,10.3846154 L27.7884615,10.3846154 L28.1730769,10.3846154 L28.6538462,10.3846154 L28.8461538,10.3846154 L29.5192308,10.3846154 L29.6153846,10.3846154 C36.8269231,10.6730769 40.8653846,16.6346154 42.5,23.1730769 C42.7884615,24.2307692 42.9807692,25.3846154 43.1730769,26.4423077 C45,34.8076923 35.5769231,40.1923077 28.6538462,41.8269231" id="Shape"></path>
                        <path d="M37.3076923,1.82692308 C37.2115385,1.82692308 37.2115385,1.82692308 37.3076923,1.82692308 C37.1153846,1.73076923 37.0192308,1.73076923 36.9230769,1.63461538 C36.8269231,1.63461538 36.7307692,1.53846154 36.6346154,1.53846154 L36.5384615,1.53846154 C33.8461538,0.673076923 31.0576923,0.192307692 28.1730769,0.192307692 L28.1730769,0.192307692 L27.7884615,0.192307692 L27.5,0.192307692 L27.3076923,0.192307692 C24.5192308,0.288461538 21.7307692,0.865384615 19.1346154,1.82692308 C19.0384615,1.82692308 19.0384615,1.82692308 18.9423077,1.92307692 C18.8461538,1.92307692 18.75,2.01923077 18.6538462,2.01923077 C18.5576923,2.11538462 18.3653846,2.11538462 18.2692308,2.21153846 L18.2692308,2.21153846 C16.6346154,2.88461538 15.0961538,3.75 13.6538462,4.71153846 C12.9807692,5.19230769 12.3076923,5.67307692 11.6346154,6.15384615 C2.11538462,12.5 -3.07692308,25.3846154 3.55769231,35.3846154 L3.55769231,35.3846154 C5,40.2884615 7.98076923,44.5192308 11.8269231,47.5 C12.5961538,48.0769231 13.3653846,48.6538462 14.2307692,49.2307692 C27.8846154,58.0769231 47.5,50.5769231 53.0769231,35.3846154 C53.5576923,34.4230769 54.0384615,33.3653846 54.3269231,32.3076923 C58.2692308,19.9038462 50.6730769,5.67307692 37.3076923,1.82692308 M53.1730769,31.6346154 C52.6923077,32.7884615 52.2115385,33.9423077 51.7307692,34.9038462 C47.1153846,48.6538462 30.3846154,55.4807692 17.5,49.6153846 C16.5384615,49.1346154 15.5769231,48.6538462 14.7115385,48.0769231 C10.1923077,45.2884615 6.53846154,40.8653846 4.80769231,35.5769231 C4.42307692,34.8076923 3.94230769,33.9423077 3.55769231,33.0769231 C3.36538462,32.6923077 3.26923077,32.4038462 3.07692308,32.0192308 C-1.53846154,20.8653846 6.44230769,9.51923077 16.25,4.32692308 C16.9230769,3.94230769 17.5961538,3.65384615 18.2692308,3.36538462 C18.3653846,3.36538462 18.4615385,3.26923077 18.5576923,3.26923077 C18.75,3.17307692 18.9423077,3.17307692 19.0384615,3.07692308 C19.2307692,2.98076923 19.5192308,2.88461538 19.7115385,2.78846154 C19.8076923,2.78846154 19.9038462,2.78846154 19.9038462,2.69230769 C20.1923077,2.59615385 20.5769231,2.5 20.8653846,2.40384615 L20.9615385,2.40384615 C21.3461538,2.30769231 21.7307692,2.21153846 22.1153846,2.11538462 L22.1153846,2.11538462 C22.5,2.01923077 22.8846154,1.92307692 23.3653846,1.82692308 L23.4615385,1.82692308 C23.8461538,1.73076923 24.2307692,1.73076923 24.6153846,1.63461538 L24.8076923,1.63461538 C25.0961538,1.63461538 25.4807692,1.53846154 25.7692308,1.53846154 L26.1538462,1.53846154 L26.9230769,1.53846154 L27.5,1.53846154 L28.0769231,1.53846154 L28.9423077,1.53846154 L29.2307692,1.53846154 C29.6153846,1.53846154 29.9038462,1.53846154 30.2884615,1.63461538 L30.3846154,1.63461538 C31.25,1.73076923 32.0192308,1.82692308 32.8846154,2.01923077 C33.6538462,2.21153846 34.4230769,2.40384615 35.1923077,2.59615385 L35.3846154,2.59615385 C35.6730769,2.69230769 35.9615385,2.78846154 36.1538462,2.88461538 C36.25,2.98076923 36.4423077,2.98076923 36.5384615,3.07692308 C48.8461538,6.34615385 58.5576923,18.3653846 53.1730769,31.6346154" id="Shape"></path>
                        <path d="M33.3653846,5.57692308 L33.3653846,5.57692308 C32.5961538,5.38461538 31.9230769,5.28846154 31.25,5.09615385 L31.25,5.09615385 C30.9615385,5 30.5769231,5 30.2884615,5 L30.0961538,5 C29.8076923,5 29.5192308,5 29.2307692,4.90384615 L28.9423077,4.90384615 L28.2692308,4.90384615 L27.7884615,4.90384615 L27.3076923,4.90384615 L26.6346154,4.90384615 L26.25,4.90384615 C25.9615385,4.90384615 25.6730769,5 25.4807692,5 L25.2884615,5 C25,5 24.6153846,5.09615385 24.3269231,5.19230769 L24.2307692,5.19230769 C23.8461538,5.28846154 23.5576923,5.28846154 23.1730769,5.38461538 L23.1730769,5.38461538 L23.1730769,5.38461538 C22.8846154,5.48076923 22.5,5.57692308 22.2115385,5.67307692 L22.1153846,5.67307692 C21.8269231,5.76923077 21.5384615,5.86538462 21.25,5.96153846 C21.1538462,5.96153846 21.0576923,6.05769231 21.0576923,6.05769231 C20.8653846,6.15384615 20.6730769,6.25 20.4807692,6.25 C20.2884615,6.34615385 20.1923077,6.34615385 20,6.44230769 C19.9038462,6.44230769 19.9038462,6.53846154 19.8076923,6.53846154 C19.2307692,6.82692308 18.5576923,7.11538462 17.9807692,7.40384615 C10.0961538,11.3461538 6.34615385,21.1538462 7.11538462,29.7115385 C7.21153846,30.6730769 7.30769231,31.6346154 7.5,32.5 C7.59615385,32.7884615 7.69230769,32.9807692 7.69230769,33.2692308 C8.84615385,36.1538462 10.5769231,38.75 12.6923077,40.9615385 C13.3653846,41.7307692 14.1346154,42.4038462 14.9038462,43.0769231 C23.6538462,51.8269231 38.75,49.7115385 45.4807692,39.5192308 C47.3076923,36.9230769 48.5576923,34.5192308 49.6153846,31.4423077 C49.9038462,30.5769231 50.2884615,29.6153846 50.4807692,28.5576923 C51.4423077,24.6153846 51.1538462,20.4807692 49.1346154,16.5384615 C45.9615385,10.6730769 39.9038462,7.21153846 33.3653846,5.57692308 M50.0961538,28.3653846 C49.9038462,29.3269231 49.5192308,30.3846154 49.1346154,31.3461538 C45.9615385,41.3461538 35.8653846,50.1923077 24.8076923,47.3076923 C20.8653846,46.4423077 17.6923077,44.4230769 14.7115385,41.9230769 C13.9423077,41.25 13.2692308,40.5769231 12.5961538,39.9038462 C10.5769231,37.6923077 9.03846154,35.1923077 8.17307692,32.4038462 L8.17307692,32.4038462 C7.98076923,31.5384615 7.88461538,30.5769231 7.78846154,29.6153846 C7.11538462,21.1538462 10.7692308,12.1153846 18.2692308,7.98076923 C18.8461538,7.69230769 19.3269231,7.40384615 19.9038462,7.21153846 C20,7.21153846 20.0961538,7.11538462 20.1923077,7.11538462 C20.2884615,7.01923077 20.4807692,7.01923077 20.5769231,6.92307692 C20.7692308,6.82692308 20.9615385,6.73076923 21.1538462,6.73076923 C21.25,6.73076923 21.25,6.73076923 21.3461538,6.63461538 C21.6346154,6.53846154 21.9230769,6.44230769 22.2115385,6.34615385 L22.2115385,6.34615385 C22.5,6.25 22.8846154,6.15384615 23.1730769,6.05769231 C23.5576923,5.96153846 23.8461538,5.86538462 24.2307692,5.86538462 L24.3269231,5.86538462 C24.6153846,5.76923077 25,5.76923077 25.2884615,5.67307692 L25.4807692,5.67307692 C25.7692308,5.67307692 26.0576923,5.57692308 26.25,5.57692308 L26.5384615,5.57692308 L27.2115385,5.57692308 L27.6923077,5.57692308 L28.1730769,5.57692308 L28.8461538,5.57692308 L29.1346154,5.57692308 C29.4230769,5.57692308 29.7115385,5.57692308 30,5.67307692 L30.0961538,5.67307692 C30.7692308,5.76923077 31.4423077,5.86538462 32.1153846,5.96153846 C43.2692308,7.30769231 52.5,17.3076923 50.0961538,28.3653846" id="Shape"></path>
                        <path d="M32.6923077,24.9038462 C32.5,24.2307692 32.2115385,23.5576923 31.7307692,22.9807692 C31.3461538,22.7884615 30.8653846,21.9230769 30.1923077,21.9230769 C30.0961538,21.9230769 30.0961538,21.8269231 30,21.8269231 C29.9038462,21.8269231 29.8076923,21.7307692 29.8076923,21.7307692 C29.7115385,21.7307692 29.6153846,21.6346154 29.6153846,21.6346154 C29.5192308,21.6346154 29.5192308,21.6346154 29.4230769,21.5384615 C29.3269231,21.5384615 29.2307692,21.4423077 29.1346154,21.4423077 L29.0384615,21.4423077 C29.0384615,21.4423077 29.0384615,21.4423077 28.9423077,21.4423077 L28.6538462,21.4423077 L28.4615385,21.4423077 L28.1730769,21.4423077 L27.9807692,21.4423077 L27.7884615,21.4423077 L27.5,21.4423077 L27.3076923,21.4423077 C27.2115385,21.4423077 27.1153846,21.4423077 27.0192308,21.5384615 C27.0192308,21.5384615 27.0192308,21.5384615 26.9230769,21.5384615 L26.8269231,21.5384615 C26.7307692,21.5384615 26.6346154,21.6346154 26.5384615,21.6346154 C26.4423077,21.6346154 26.4423077,21.6346154 26.3461538,21.7307692 C26.25,21.7307692 26.1538462,21.8269231 26.1538462,21.8269231 C26.0576923,21.8269231 25.9615385,21.9230769 25.9615385,21.9230769 C25.8653846,21.9230769 25.8653846,22.0192308 25.7692308,22.0192308 C25.6730769,22.0192308 25.5769231,22.1153846 25.5769231,22.1153846 C25.4807692,22.1153846 25.4807692,22.2115385 25.3846154,22.2115385 C25.2884615,22.3076923 25.1923077,22.3076923 25.1923077,22.4038462 C25.0961538,22.4038462 25.0961538,22.5 25,22.5 C24.9038462,22.5961538 24.9038462,22.5961538 24.8076923,22.6923077 L24.6153846,22.8846154 C24.5192308,22.9807692 24.5192308,22.9807692 24.4230769,23.0769231 C24.3269231,23.1730769 24.3269231,23.1730769 24.2307692,23.2692308 C24.2307692,23.3653846 24.1346154,23.3653846 24.1346154,23.4615385 C24.0384615,23.5576923 24.0384615,23.6538462 23.9423077,23.6538462 C23.9423077,23.75 23.8461538,23.75 23.8461538,23.8461538 C23.8461538,23.9423077 23.75,24.0384615 23.75,24.0384615 C23.75,24.1346154 23.6538462,24.1346154 23.6538462,24.2307692 C23.6538462,24.3269231 23.5576923,24.4230769 23.5576923,24.4230769 C23.5576923,24.5192308 23.4615385,24.6153846 23.4615385,24.6153846 C23.4615385,24.7115385 23.4615385,24.7115385 23.3653846,24.8076923 C23.3653846,24.9038462 23.3653846,25 23.2692308,25.0961538 L23.2692308,25.1923077 C23.2692308,25.1923077 23.2692308,25.1923077 23.2692308,25.2884615 C23.2692308,25.3846154 23.2692308,25.4807692 23.1730769,25.5769231 L23.1730769,25.7692308 L23.1730769,26.0576923 L23.1730769,26.25 L23.1730769,26.4423077 L23.1730769,26.7307692 L23.1730769,26.9230769 C23.1730769,27.0192308 23.1730769,27.1153846 23.2692308,27.2115385 C23.2692308,27.2115385 23.2692308,27.2115385 23.3653846,27.4038462 C23.3653846,27.5 23.3653846,27.5961538 23.4615385,27.6923077 C24.6153846,30.8653846 28.8461538,31.9230769 31.3461538,29.5192308 C31.8269231,28.8461538 32.8846154,28.2692308 32.6923077,27.0192308 C32.8846154,26.25 32.8846154,25.5769231 32.6923077,24.9038462 M25.1923077,28.8461538 C24.8076923,28.3653846 24.5192308,27.5 24.3269231,27.0192308 L24.3269231,26.8269231 L24.3269231,26.6346154 L24.3269231,26.4423077 L24.3269231,26.25 L24.3269231,26.0576923 L24.3269231,25.8653846 L24.3269231,25.6730769 L24.3269231,25.4807692 L24.3269231,25.2884615 L24.3269231,25.0961538 C24.3269231,25 24.3269231,25 24.4230769,24.9038462 L24.4230769,24.8076923 C24.4230769,24.7115385 24.5192308,24.7115385 24.5192308,24.6153846 C24.5192308,24.6153846 24.5192308,24.5192308 24.6153846,24.5192308 C24.6153846,24.4230769 24.7115385,24.4230769 24.7115385,24.3269231 C24.7115385,24.3269231 24.7115385,24.2307692 24.8076923,24.2307692 C24.8076923,24.1346154 24.9038462,24.1346154 24.9038462,24.0384615 L25,23.9423077 C25,23.8461538 25.0961538,23.8461538 25.0961538,23.75 L25.1923077,23.6538462 L25.2884615,23.5576923 C25.3846154,23.5576923 25.3846154,23.4615385 25.4807692,23.4615385 L25.5769231,23.3653846 C25.6730769,23.2692308 25.6730769,23.2692308 25.7692308,23.2692308 L25.8653846,23.1730769 C25.9615385,23.1730769 25.9615385,23.0769231 26.0576923,23.0769231 C26.0576923,23.0769231 26.1538462,23.0769231 26.1538462,22.9807692 C26.25,22.9807692 26.25,22.8846154 26.3461538,22.8846154 C26.3461538,22.8846154 26.4423077,22.8846154 26.4423077,22.7884615 C26.5384615,22.7884615 26.5384615,22.6923077 26.6346154,22.6923077 C26.7307692,22.6923077 26.7307692,22.6923077 26.8269231,22.5961538 C26.9230769,22.5961538 26.9230769,22.5961538 27.0192308,22.5 L27.2115385,22.5 L27.4038462,22.5 L27.5961538,22.5 L27.7884615,22.5 L27.9807692,22.5 L28.1730769,22.5 L28.3653846,22.5 L28.5576923,22.5 L28.75,22.5 L28.9423077,22.5 C29.0384615,22.5 29.0384615,22.5 29.1346154,22.5961538 C29.1346154,22.5961538 29.2307692,22.5961538 29.2307692,22.6923077 C29.3269231,22.6923077 29.4230769,22.7884615 29.4230769,22.7884615 C29.4230769,22.7884615 29.5192308,22.7884615 29.5192308,22.8846154 C29.6153846,22.8846154 29.6153846,22.9807692 29.7115385,22.9807692 C29.7115385,22.9807692 29.8076923,22.9807692 29.8076923,23.0769231 C29.9038462,23.0769231 29.9038462,23.1730769 30,23.1730769 L30.0961538,23.2692308 C31.1538462,24.1346154 31.5384615,25.2884615 31.5384615,26.4423077 C31.8269231,29.7115385 27.5961538,31.0576923 25.1923077,28.8461538" id="Shape"></path>
                        <path d="M39.7115385,24.9038462 C38.8461538,20.2884615 36.0576923,15.8653846 32.3076923,13.6538462 C31.3461538,13.2692308 30.3846154,13.1730769 29.4230769,13.1730769 L29.3269231,13.1730769 L28.75,13.1730769 L28.5576923,13.1730769 L28.1730769,13.1730769 L27.8846154,13.1730769 L27.5961538,13.1730769 L27.2115385,13.1730769 L27.0192308,13.1730769 C26.8269231,13.1730769 26.7307692,13.1730769 26.5384615,13.2692308 L26.4423077,13.2692308 C26.25,13.2692308 26.0576923,13.3653846 25.8653846,13.3653846 C25.8653846,13.3653846 25.8653846,13.3653846 25.7692308,13.3653846 C25.5769231,13.3653846 25.3846154,13.4615385 25.1923077,13.4615385 L25.1923077,13.4615385 L25.1923077,13.4615385 C25,13.4615385 24.8076923,13.5576923 24.6153846,13.6538462 C24.6153846,13.6538462 24.6153846,13.6538462 24.5192308,13.6538462 C24.3269231,13.75 24.1346154,13.75 24.0384615,13.8461538 C24.0384615,13.8461538 23.9423077,13.8461538 23.9423077,13.9423077 C23.8461538,13.9423077 23.75,14.0384615 23.5576923,14.0384615 C23.4615385,14.0384615 23.3653846,14.1346154 23.2692308,14.1346154 C23.2692308,14.1346154 23.1730769,14.1346154 23.1730769,14.2307692 C22.4038462,14.5192308 21.7307692,14.9038462 21.0576923,15.3846154 C20.3846154,15.8653846 19.8076923,16.3461538 19.4230769,16.8269231 C17.5,20.0961538 16.6346154,23.75 16.4423077,27.5 L16.4423077,29.7115385 L16.4423077,30.1923077 C18.75,35.3846154 24.8076923,40 30.6730769,37.6923077 C33.75,36.6346154 36.1538462,35.0961538 38.6538462,32.6923077 C39.4230769,31.9230769 39.7115385,30.8653846 40.0961538,29.9038462 C40.2884615,29.2307692 40,28.3653846 40.1923077,27.5961538 C40,26.7307692 39.9038462,25.8653846 39.7115385,24.9038462 M29.3269231,35.8653846 C25.9615385,37.0192308 21.9230769,35.4807692 19.6153846,32.4038462 C19.0384615,31.3461538 18.1730769,30.2884615 17.8846154,29.0384615 C17.8846154,28.6538462 17.7884615,28.3653846 17.7884615,27.9807692 C17.8846154,23.9423077 18.5576923,19.2307692 21.9230769,17.1153846 C22.5,16.7307692 23.0769231,16.4423077 23.6538462,16.1538462 L23.75,16.1538462 C23.8461538,16.1538462 23.9423077,16.0576923 23.9423077,16.0576923 C24.0384615,16.0576923 24.1346154,15.9615385 24.2307692,15.9615385 L24.3269231,15.9615385 C24.5192308,15.8653846 24.6153846,15.8653846 24.8076923,15.7692308 L24.8076923,15.7692308 C25,15.6730769 25.1923077,15.6730769 25.3846154,15.6730769 C25.5769231,15.5769231 25.7692308,15.5769231 25.9615385,15.5769231 L25.9615385,15.5769231 C26.1538462,15.5769231 26.3461538,15.4807692 26.4423077,15.4807692 L26.5384615,15.4807692 C26.7307692,15.4807692 26.8269231,15.4807692 27.0192308,15.3846154 L27.2115385,15.3846154 L27.5961538,15.3846154 L27.8846154,15.3846154 L28.0769231,15.3846154 L28.4615385,15.3846154 L28.5576923,15.3846154 L29.0384615,15.3846154 C34.3269231,16.0576923 36.6346154,20.9615385 37.4038462,25.8653846 C37.5,26.6346154 37.5961538,27.5 37.6923077,28.2692308 C38.4615385,32.9807692 33.0769231,34.6153846 29.3269231,35.8653846" id="Shape"></path>
                        <path d="M30.0961538,25.1923077 C30.0961538,25.1923077 30.0961538,25.0961538 30.0961538,25.1923077 C30,25.0961538 30,25 30,25 C30,25 30,24.9038462 29.9038462,24.9038462 C29.9038462,24.9038462 29.9038462,24.8076923 29.8076923,24.8076923 C29.8076923,24.8076923 29.8076923,24.7115385 29.7115385,24.7115385 C29.7115385,24.7115385 29.7115385,24.6153846 29.6153846,24.6153846 L29.5192308,24.5192308 C29.5192308,24.5192308 29.5192308,24.5192308 29.4230769,24.4230769 L29.3269231,24.3269231 C29.3269231,24.3269231 29.3269231,24.3269231 29.2307692,24.3269231 L29.1346154,24.2307692 C29.1346154,24.2307692 29.1346154,24.2307692 29.0384615,24.2307692 C29.0384615,24.2307692 28.9423077,24.2307692 28.9423077,24.1346154 C28.9423077,24.1346154 28.9423077,24.1346154 28.8461538,24.1346154 L28.75,24.1346154 L28.6538462,24.1346154 L28.5576923,24.1346154 L28.4615385,24.1346154 C28.4615385,24.1346154 28.4615385,24.1346154 28.3653846,24.1346154 L28.3653846,24.1346154 L28.2692308,24.1346154 L28.1730769,24.1346154 L28.0769231,24.1346154 L27.9807692,24.1346154 L27.8846154,24.1346154 L27.7884615,24.1346154 L27.6923077,24.1346154 L27.5961538,24.1346154 L27.5961538,24.1346154 C27.5961538,24.1346154 27.5961538,24.1346154 27.5,24.1346154 L27.4038462,24.1346154 L27.3076923,24.1346154 L27.2115385,24.1346154 L27.1153846,24.1346154 L27.0192308,24.1346154 C27.0192308,24.1346154 26.9230769,24.1346154 26.9230769,24.2307692 L26.8269231,24.2307692 C26.8269231,24.2307692 26.7307692,24.2307692 26.7307692,24.3269231 C26.7307692,24.3269231 26.7307692,24.3269231 26.6346154,24.4230769 L26.5384615,24.5192308 C26.5384615,24.5192308 26.5384615,24.6153846 26.4423077,24.6153846 C26.4423077,24.6153846 26.4423077,24.7115385 26.3461538,24.7115385 L26.25,24.8076923 C26.25,24.8076923 26.25,24.9038462 26.1538462,24.9038462 L26.0576923,25 C26.0576923,25 26.0576923,25 25.9615385,25.0961538 C25.9615385,25.0961538 25.9615385,25.1923077 25.8653846,25.1923077 L25.8653846,25.2884615 L25.8653846,25.3846154 L25.8653846,25.4807692 L25.8653846,25.5769231 L25.8653846,25.6730769 L25.8653846,25.6730769 L25.8653846,25.6730769 L25.8653846,25.7692308 L25.8653846,25.8653846 L25.8653846,25.9615385 L25.8653846,26.0576923 L25.8653846,26.1538462 L25.8653846,26.25 L25.8653846,26.3461538 L25.8653846,26.4423077 C25.8653846,26.4423077 25.8653846,26.4423077 25.8653846,26.5384615 L25.8653846,26.6346154 C26.5384615,28.2692308 29.4230769,28.75 29.9038462,26.9230769 L29.9038462,26.8269231 C30.7692308,26.6346154 30.2884615,25.7692308 30.0961538,25.1923077 C30.0961538,25.2884615 30.0961538,25.1923077 30.0961538,25.1923077 M28.5576923,25.7692308 C28.5576923,25.8653846 28.5576923,25.8653846 28.5576923,25.7692308 C28.5576923,26.0576923 28.2692308,26.3461538 27.9807692,26.5384615 C27.7884615,26.7307692 27.6923077,26.9230769 27.4038462,27.0192308 C26.9230769,27.3076923 26.4423077,27.0192308 26.25,26.5384615 C26.1538462,26.1538462 26.1538462,25.6730769 26.3461538,25.2884615 C26.6346154,24.9038462 26.9230769,24.7115385 27.3076923,24.5192308 C27.5,24.4230769 27.6923077,24.5192308 27.8846154,24.6153846 C27.9807692,24.6153846 28.1730769,24.7115385 28.1730769,24.9038462 L28.1730769,24.9038462 C28.3653846,25.0961538 28.4615385,25.2884615 28.4615385,25.5769231 C28.6538462,25.5769231 28.6538462,25.6730769 28.5576923,25.7692308" id="Shape"></path>
                        <path d="M33.2692308,20.4807692 C32.3076923,19.1346154 30.8653846,18.2692308 29.2307692,18.0769231 L28.8461538,18.0769231 C28.8461538,18.0769231 28.8461538,18.0769231 28.75,18.0769231 L28.4615385,18.0769231 L28.3653846,18.0769231 L28.0769231,18.0769231 L27.8846154,18.0769231 L27.6923077,18.0769231 L27.4038462,18.0769231 L27.3076923,18.0769231 L27.0192308,18.0769231 C27.0192308,18.0769231 27.0192308,18.0769231 26.9230769,18.0769231 C26.8269231,18.0769231 26.6346154,18.0769231 26.5384615,18.1730769 L26.5384615,18.1730769 C26.25,18.2692308 25.9615385,18.2692308 25.7692308,18.3653846 L25.7692308,18.3653846 C25.6730769,18.3653846 25.5769231,18.4615385 25.3846154,18.4615385 C25.3846154,18.4615385 25.3846154,18.4615385 25.2884615,18.4615385 C25.1923077,18.4615385 25.0961538,18.5576923 25,18.5576923 C25,18.5576923 24.9038462,18.5576923 24.8076923,18.6538462 L24.7115385,18.6538462 C23.75,19.0384615 22.9807692,19.6153846 22.2115385,20.2884615 L22.2115385,20.2884615 L22.1153846,20.3846154 C22.1153846,20.4807692 22.0192308,20.4807692 21.9230769,20.5769231 L21.9230769,20.5769231 C19.9038462,22.6923077 20,25.6730769 20.0961538,28.0769231 C20.0961538,28.1730769 20.1923077,28.2692308 20.1923077,28.4615385 C19.8076923,28.8461538 20.4807692,29.0384615 20.4807692,29.3269231 C21.8269231,32.9807692 25.7692308,34.4230769 29.2307692,33.3653846 C30.6730769,32.9807692 32.0192308,32.4038462 33.3653846,31.4423077 C34.4230769,30.5769231 34.7115385,29.3269231 35.1923077,27.8846154 C35.2884615,27.0192308 35.1923077,26.1538462 35.0961538,25.2884615 C34.9038462,23.5576923 34.2307692,21.9230769 33.2692308,20.4807692 M34.5192308,28.0769231 C33.3653846,32.1153846 28.1730769,33.6538462 24.7115385,32.0192308 C24.0384615,31.5384615 22.9807692,31.25 22.5,30.3846154 C22.0192308,29.6153846 21.25,28.8461538 21.3461538,27.8846154 L21.3461538,27.8846154 C20.7692308,25.5769231 21.4423077,23.2692308 22.8846154,21.4423077 L22.8846154,21.4423077 L22.9807692,21.3461538 C23.8461538,20.3846154 25,19.7115385 26.25,19.4230769 L26.25,19.4230769 C26.3461538,19.4230769 26.4423077,19.4230769 26.5384615,19.3269231 L26.6346154,19.3269231 L26.8269231,19.3269231 L26.9230769,19.3269231 L27.1153846,19.3269231 L27.3076923,19.3269231 L27.5,19.3269231 L27.6923077,19.3269231 L27.8846154,19.3269231 L28.0769231,19.3269231 L28.2692308,19.3269231 L28.4615385,19.3269231 L28.6538462,19.3269231 L28.8461538,19.3269231 L28.9423077,19.3269231 L29.1346154,19.3269231 L29.2307692,19.3269231 C32.2115385,19.8076923 34.1346154,22.7884615 34.5192308,25.7692308 C34.7115385,26.5384615 34.6153846,27.3076923 34.5192308,28.0769231" id="Shape"></path>
                    </g>
                    <path d="M99.8076923,46.7307692 C98.9423077,41.7307692 97.4038462,36.8269231 95.4807692,32.1153846 C95.0961538,31.1538462 94.6153846,30.2884615 94.2307692,29.3269231 C93.6538462,28.4615385 93.1730769,27.5961538 92.5961538,26.6346154 C92.0192308,25.7692308 91.5384615,24.8076923 90.9615385,23.9423077 C87.5961538,18.4615385 83.6538462,13.4615385 78.9423077,9.32692308 C78.2692308,8.84615385 77.6923077,8.36538462 77.0192308,7.88461538 C68.75,2.78846154 59.0384615,6.85562718e-15 49.3269231,0.192307692 C48.2692308,0.192307692 47.1153846,0.288461538 46.0576923,0.384615385 C33.8461538,3.17307692 20.4807692,7.69230769 12.3076923,17.6923077 C11.8269231,18.3653846 11.3461538,18.9423077 10.7692308,19.6153846 C7.59615385,23.75 5,28.3653846 3.17307692,33.5576923 C3.07692308,33.75 3.07692308,33.8461538 2.98076923,34.0384615 C2.98076923,34.1346154 2.88461538,34.3269231 2.88461538,34.4230769 C1.15384615,39.4230769 0.288461538,44.8076923 0.288461538,50.2884615 L0.288461538,50.4807692 L0.288461538,51.1538462 L0.288461538,51.8269231 L0.288461538,52.0192308 C0.480769231,57.1153846 1.44230769,62.1153846 3.07692308,66.8269231 L3.07692308,66.8269231 C3.17307692,67.1153846 3.26923077,67.4038462 3.46153846,67.7884615 C3.55769231,67.8846154 3.55769231,68.0769231 3.65384615,68.1730769 C3.75,68.3653846 3.75,68.4615385 3.84615385,68.6538462 C4.13461538,69.5192308 4.51923077,70.2884615 4.90384615,71.1538462 C11.4423077,82.4038462 21.7307692,91.1538462 32.8846154,97.1153846 C33.75,97.4038462 34.6153846,97.7884615 35.4807692,97.9807692 C41.6346154,99.8076923 48.0769231,100.192308 54.4230769,99.3269231 C55.4807692,99.2307692 56.4423077,99.0384615 57.4038462,98.8461538 C67.4038462,94.2307692 79.0384615,91.5384615 87.0192308,84.0384615 C87.7884615,83.3653846 88.4615385,82.6923077 89.0384615,81.9230769 C94.2307692,71.7307692 99.5192308,61.3461538 100.192308,49.8076923 C100.096154,48.8461538 100,47.7884615 99.8076923,46.7307692 M89.3269231,77.3076923 C88.8461538,78.2692308 88.2692308,79.1346154 87.5961538,79.9038462 C79.5192308,89.2307692 66.7307692,93.1730769 55.4807692,96.9230769 C54.4230769,97.1153846 53.3653846,97.2115385 52.3076923,97.2115385 C45.9615385,97.6923077 39.5192308,97.1153846 33.4615385,95 L33.4615385,95 C23.2692308,90 14.7115385,82.0192308 7.98076923,72.5961538 C7.59615385,71.9230769 7.21153846,71.3461538 6.92307692,70.6730769 C6.63461538,70 6.25,69.3269231 5.96153846,68.5576923 C5.86538462,68.2692308 5.76923077,68.0769231 5.67307692,67.7884615 C5.57692308,67.5961538 5.57692308,67.4038462 5.48076923,67.3076923 C5.48076923,67.2115385 5.38461538,67.1153846 5.38461538,67.0192308 C4.71153846,65.1923077 4.13461538,63.2692308 3.65384615,61.3461538 C2.88461538,58.1730769 2.5,55 2.30769231,51.8269231 L2.30769231,51.6346154 L2.30769231,50.9615385 L2.30769231,50.2884615 L2.30769231,50.0961538 C2.30769231,46.9230769 2.59615385,43.75 3.26923077,40.5769231 C3.65384615,38.6538462 4.13461538,36.7307692 4.80769231,34.8076923 C4.80769231,34.7115385 4.90384615,34.6153846 4.90384615,34.5192308 C5,34.3269231 5,34.1346154 5.09615385,33.9423077 C5.19230769,33.6538462 5.28846154,33.4615385 5.38461538,33.2692308 L5.38461538,33.2692308 C6.44230769,30.3846154 7.78846154,27.5961538 9.42307692,25 C9.90384615,24.2307692 10.2884615,23.5576923 10.7692308,22.8846154 C11.3461538,21.9230769 11.9230769,21.0576923 12.5961538,20.0961538 C13.2692308,19.2307692 13.9423077,18.3653846 14.6153846,17.5 C23.2692308,8.84615385 35,2.88461538 47.1153846,2.40384615 L50,2.40384615 C58.8461538,2.69230769 67.6923077,5.09615385 75.1923077,9.13461538 C75.9615385,9.61538462 76.6346154,10 77.3076923,10.4807692 C81.25,12.7884615 83.75,16.6346154 86.1538462,20.4807692 C86.5384615,21.1538462 87.0192308,21.8269231 87.4038462,22.5961538 C88.6538462,24.7115385 89.8076923,26.8269231 91.25,28.8461538 C91.7307692,29.8076923 92.2115385,30.7692308 92.6923077,31.7307692 C94.5192308,35.5769231 96.0576923,39.6153846 97.0192308,43.6538462 C97.3076923,44.7115385 97.5,45.6730769 97.6923077,46.7307692 C99.5192308,57.6923077 93.4615385,67.5961538 89.3269231,77.3076923" id="Shape" fill="#70A132"></path>
                    <g id="Group" transform="translate(5.769231, 6.730769)" fill="#69ABB1">
                        <path d="M83.5576923,42.7884615 L83.5576923,42.2115385 L83.5576923,42.1153846 C83.5576923,40.6730769 83.3653846,39.2307692 83.1730769,37.7884615 C83.0769231,37.1153846 82.9807692,36.3461538 82.7884615,35.6730769 C81.7307692,29.7115385 78.5576923,24.3269231 75.0961538,19.3269231 C74.6153846,18.6538462 74.1346154,17.9807692 73.5576923,17.3076923 C72.9807692,16.6346154 72.4038462,16.0576923 71.8269231,15.4807692 C71.7307692,15.3846154 71.6346154,15.2884615 71.6346154,15.2884615 C71.5384615,15.1923077 71.5384615,15.1923077 71.4423077,15.0961538 C68.9423077,12.6923077 66.1538462,10.6730769 63.0769231,9.03846154 C62.3076923,8.65384615 61.5384615,8.26923077 60.6730769,7.88461538 C54.0384615,5.48076923 46.8269231,4.71153846 39.7115385,4.61538462 C38.6538462,4.71153846 37.6923077,4.90384615 36.6346154,5.09615385 C35.9615385,5.19230769 35.2884615,5.38461538 34.6153846,5.57692308 C25.9615385,8.26923077 18.4615385,14.0384615 12.6923077,20.4807692 C12.2115385,21.1538462 11.7307692,21.9230769 11.25,22.5961538 C9.80769231,24.8076923 8.65384615,27.2115385 7.69230769,29.7115385 L7.69230769,29.7115385 C7.59615385,29.9038462 7.5,30.0961538 7.5,30.2884615 C7.5,30.3846154 7.40384615,30.5769231 7.40384615,30.6730769 C7.40384615,30.7692308 7.30769231,30.8653846 7.30769231,30.9615385 C5.96153846,34.9038462 5.28846154,39.1346154 5.28846154,43.4615385 L5.28846154,43.5576923 L5.28846154,44.1346154 L5.28846154,44.6153846 L5.28846154,44.8076923 C5.48076923,48.75 6.15384615,52.6923077 7.5,56.3461538 L7.5,56.3461538 C7.59615385,56.5384615 7.69230769,56.8269231 7.78846154,57.0192308 C7.78846154,57.1153846 7.88461538,57.2115385 7.88461538,57.3076923 C7.88461538,57.4038462 7.98076923,57.5 7.98076923,57.6923077 C10.0961538,62.9807692 13.1730769,67.5961538 17.1153846,71.3461538 L17.2115385,71.4423077 C17.3076923,71.5384615 17.4038462,71.6346154 17.5,71.7307692 C21.25,75.2884615 25.6730769,78.0769231 30.6730769,80 L30.6730769,80 C30.8653846,80.0961538 31.0576923,80.0961538 31.25,80.1923077 C31.4423077,80.2884615 31.5384615,80.2884615 31.7307692,80.3846154 C31.8269231,80.3846154 31.9230769,80.4807692 32.0192308,80.4807692 C38.2692308,82.0192308 45.0961538,82.7884615 51.7307692,82.1153846 C52.6923077,82.0192308 53.5576923,81.9230769 54.5192308,81.7307692 C62.7884615,79.2307692 70.6730769,75.1923077 75.7692308,68.3653846 C76.1538462,67.6923077 76.6346154,67.1153846 77.0192308,66.4423077 C77.7884615,65.0961538 78.4615385,63.5576923 78.9423077,62.0192308 C79.3269231,61.25 79.7115385,60.4807692 80.0961538,59.7115385 C80.4807692,58.9423077 80.7692308,58.0769231 81.1538462,57.3076923 C81.1538462,57.2115385 81.1538462,57.2115385 81.25,57.1153846 C81.3461538,56.9230769 81.3461538,56.8269231 81.4423077,56.6346154 C81.5384615,56.4423077 81.5384615,56.25 81.6346154,56.0576923 L81.6346154,55.9615385 C82.9807692,52.0192308 83.6538462,47.7884615 83.6538462,43.4615385 L83.6538462,43.2692308 C83.5576923,43.1730769 83.5576923,42.9807692 83.5576923,42.7884615 M82.9807692,43.4615385 C82.9807692,45.9615385 82.6923077,48.5576923 82.2115385,51.1538462 C81.9230769,52.7884615 81.4423077,54.3269231 80.9615385,55.7692308 C80.9615385,55.8653846 80.9615385,55.8653846 80.8653846,55.9615385 C80.7692308,56.1538462 80.7692308,56.3461538 80.6730769,56.4423077 C80.5769231,56.6346154 80.5769231,56.7307692 80.4807692,56.9230769 C80.4807692,56.9230769 80.4807692,57.0192308 80.3846154,57.0192308 C80,58.1730769 79.4230769,59.3269231 78.9423077,60.3846154 C78.6538462,61.25 78.3653846,62.1153846 77.9807692,62.8846154 C77.5961538,63.75 77.3076923,64.5192308 76.8269231,65.2884615 C71.8269231,74.6153846 61.7307692,79.8076923 51.5384615,81.5384615 C50.4807692,81.6346154 49.3269231,81.7307692 48.2692308,81.8269231 C42.7884615,82.0192308 37.3076923,81.3461538 32.0192308,80 C31.9230769,80 31.8269231,79.9038462 31.7307692,79.9038462 C31.6346154,79.9038462 31.4423077,79.8076923 31.3461538,79.7115385 C31.1538462,79.6153846 30.9615385,79.6153846 30.7692308,79.5192308 L30.7692308,79.5192308 C28.4615385,78.6538462 26.25,77.5961538 24.1346154,76.25 C21.8269231,74.8076923 19.7115385,73.1730769 17.6923077,71.3461538 C17.5961538,71.25 17.5,71.25 17.5,71.1538462 C17.4038462,71.0576923 17.4038462,71.0576923 17.3076923,70.9615385 C15.3846154,69.0384615 13.6538462,66.9230769 12.1153846,64.7115385 C10.6730769,62.5 9.42307692,60.0961538 8.36538462,57.5961538 C8.36538462,57.5 8.26923077,57.3076923 8.17307692,57.2115385 C8.17307692,57.1153846 8.07692308,57.0192308 8.07692308,56.9230769 C7.5,55.4807692 7.11538462,53.9423077 6.73076923,52.4038462 C6.15384615,49.9038462 5.76923077,47.3076923 5.67307692,44.8076923 L5.67307692,44.6153846 L5.67307692,44.1346154 L5.67307692,43.5576923 L5.67307692,43.4615385 C5.67307692,40.9615385 5.96153846,38.3653846 6.44230769,35.7692308 C6.73076923,34.2307692 7.21153846,32.6923077 7.69230769,31.1538462 C7.69230769,31.0576923 7.78846154,30.9615385 7.78846154,30.8653846 C7.78846154,30.7692308 7.88461538,30.5769231 7.98076923,30.4807692 C8.84615385,27.9807692 10,25.4807692 11.4423077,23.2692308 C11.8269231,22.6923077 12.2115385,22.1153846 12.5961538,21.5384615 C12.9807692,20.9615385 13.3653846,20.4807692 13.75,20 C18.8461538,14.4230769 24.8076923,10 31.6346154,7.01923077 C32.2115385,6.82692308 32.7884615,6.63461538 33.3653846,6.44230769 C33.9423077,6.25 34.6153846,6.05769231 35.2884615,5.96153846 C35.9615385,5.76923077 36.5384615,5.67307692 37.2115385,5.57692308 C37.8846154,5.48076923 38.4615385,5.38461538 39.1346154,5.28846154 C46.5384615,4.80769231 54.5192308,5.96153846 61.25,8.84615385 C62.3076923,9.42307692 63.4615385,10 64.4230769,10.5769231 C66.7307692,12.0192308 68.9423077,13.6538462 70.8653846,15.4807692 C70.9615385,15.5769231 70.9615385,15.5769231 71.0576923,15.6730769 C71.1538462,15.7692308 71.1538462,15.7692308 71.25,15.8653846 C71.7307692,16.3461538 72.2115385,16.8269231 72.6923077,17.3076923 C75.8653846,21.25 78.3653846,25.2884615 80.2884615,29.6153846 C80.2884615,29.7115385 80.2884615,29.7115385 80.3846154,29.8076923 C80.6730769,30.5769231 80.9615385,31.3461538 81.1538462,32.1153846 C81.5384615,33.4615385 81.9230769,34.9038462 82.2115385,36.3461538 C82.3076923,37.0192308 82.4038462,37.5961538 82.5,38.2692308 C82.6923077,39.5192308 82.7884615,40.8653846 82.7884615,42.1153846 L82.7884615,42.2115385 L82.7884615,42.7884615 L82.7884615,43.2692308 C82.9807692,43.3653846 82.9807692,43.3653846 82.9807692,43.4615385" id="Shape"></path>
                        <path d="M87.9807692,39.9038462 C87.2115385,34.8076923 85.3846154,29.8076923 83.0769231,25 C82.5961538,24.0384615 82.1153846,23.0769231 81.6346154,22.2115385 C80.5769231,20.3846154 79.5192308,18.5576923 78.3653846,16.8269231 C77.9807692,16.25 77.5961538,15.6730769 77.2115385,15.0961538 C75.9615385,13.4615385 74.9038462,11.5384615 73.1730769,10.2884615 C72.3076923,9.61538462 71.5384615,8.84615385 70.5769231,8.26923077 C69.7115385,7.59615385 68.75,7.01923077 67.8846154,6.44230769 C67.0192308,5.96153846 66.25,5.38461538 65.3846154,5 C56.1538462,1.44230769 45.6730769,-0.384615385 35.7692308,0.576923077 C35,0.769230769 34.2307692,0.865384615 33.4615385,1.05769231 C31.6346154,1.53846154 29.9038462,2.11538462 28.1730769,2.78846154 C27.3076923,3.17307692 26.4423077,3.46153846 25.5769231,3.84615385 C23.9423077,4.80769231 22.2115385,5.19230769 20.6730769,6.44230769 C19.9038462,6.92307692 19.1346154,7.40384615 18.3653846,7.98076923 C15.3846154,10.0961538 12.6923077,12.6923077 10.4807692,15.5769231 C9.90384615,16.25 9.42307692,17.0192308 8.75,17.8846154 C6.34615385,21.25 4.42307692,24.9038462 2.98076923,28.8461538 C2.88461538,28.9423077 2.88461538,29.1346154 2.78846154,29.2307692 C2.78846154,29.3269231 2.69230769,29.4230769 2.69230769,29.6153846 C2.59615385,29.9038462 2.5,30.1923077 2.40384615,30.4807692 L2.40384615,30.4807692 C1.05769231,34.6153846 0.384615385,39.0384615 0.384615385,43.5576923 L0.384615385,43.75 L0.384615385,44.3269231 L0.384615385,44.9038462 L0.384615385,45.0961538 C0.576923077,49.9038462 1.53846154,54.5192308 3.17307692,58.9423077 C3.17307692,59.0384615 3.26923077,59.1346154 3.26923077,59.3269231 C3.36538462,59.4230769 3.36538462,59.6153846 3.46153846,59.7115385 C3.84615385,60.6730769 4.23076923,61.6346154 4.71153846,62.5961538 C5.19230769,63.5576923 5.67307692,64.4230769 6.15384615,65.3846154 C11.8269231,73.8461538 19.7115385,81.1538462 29.6153846,85 C29.7115385,85.0961538 29.9038462,85.0961538 30,85.0961538 C35.2884615,86.5384615 40.7692308,87.1153846 46.25,86.8269231 C47.3076923,86.7307692 48.4615385,86.7307692 49.5192308,86.5384615 C59.8076923,83.75 71.1538462,80 78.1730769,71.5384615 C78.8461538,70.7692308 79.4230769,70 80,69.1346154 C84.6153846,60.8653846 88.3653846,52.0192308 88.0769231,42.6923077 C88.2692308,41.7307692 88.1730769,40.7692308 87.9807692,39.9038462 L87.9807692,39.9038462 Z M87.2115385,43.4615385 C87.2115385,44.1346154 87.2115385,44.9038462 87.1153846,45.5769231 C86.9230769,53.9423077 83.2692308,61.6346154 79.3269231,68.6538462 C78.75,69.5192308 78.1730769,70.3846154 77.5,71.25 C70.8653846,79.2307692 59.9038462,82.5961538 50.2884615,85.2884615 C49.3269231,85.3846154 48.2692308,85.4807692 47.3076923,85.4807692 C41.3461538,85.6730769 35.2884615,85 29.6153846,83.5576923 L29.6153846,83.5576923 C28.9423077,83.3653846 28.3653846,83.0769231 27.6923077,82.7884615 C20.2884615,79.5192308 13.9423077,73.6538462 8.94230769,67.1153846 C8.55769231,66.5384615 8.17307692,65.9615385 7.78846154,65.3846154 C6.73076923,63.6538462 5.76923077,61.8269231 5,59.9038462 L5,59.9038462 C4.90384615,59.7115385 4.80769231,59.5192308 4.71153846,59.2307692 C4.61538462,59.0384615 4.61538462,58.9423077 4.51923077,58.75 C4.51923077,58.6538462 4.42307692,58.5576923 4.42307692,58.4615385 C3.84615385,56.8269231 3.26923077,55.0961538 2.88461538,53.3653846 C2.21153846,50.4807692 1.82692308,47.6923077 1.73076923,44.9038462 L1.73076923,44.8076923 L1.73076923,44.2307692 L1.73076923,43.6538462 L1.73076923,43.4615385 C1.73076923,40.6730769 2.01923077,37.7884615 2.59615385,35 C2.98076923,33.2692308 3.36538462,31.5384615 3.94230769,29.9038462 C3.94230769,29.8076923 4.03846154,29.7115385 4.03846154,29.6153846 C4.13461538,29.4230769 4.13461538,29.3269231 4.23076923,29.1346154 C4.32692308,28.9423077 4.42307692,28.6538462 4.42307692,28.4615385 L4.42307692,28.4615385 C5.38461538,25.8653846 6.53846154,23.4615385 7.98076923,21.1538462 C8.36538462,20.4807692 8.75,19.9038462 9.23076923,19.2307692 C9.61538462,18.6538462 10.0961538,18.0769231 10.4807692,17.5 C15.3846154,11.0576923 22.1153846,6.05769231 29.6153846,3.36538462 C30.3846154,3.07692308 31.0576923,2.88461538 31.9230769,2.59615385 C32.7884615,2.30769231 33.6538462,2.11538462 34.5192308,1.92307692 C35.1923077,1.73076923 35.9615385,1.63461538 36.6346154,1.44230769 C46.1538462,1.25 56.1538462,2.21153846 65.0961538,5.96153846 C65.6730769,6.25 66.25,6.63461538 66.8269231,6.92307692 C69.4230769,8.46153846 71.8269231,10.3846154 74.0384615,12.5 L74.1346154,12.5961538 C76.1538462,15.0961538 77.9807692,17.6923077 79.7115385,20.5769231 C80.2884615,21.5384615 80.8653846,22.4038462 81.3461538,23.3653846 C84.5192308,29.1346154 86.7307692,35.2884615 87.2115385,41.8269231 L87.2115385,41.9230769 L87.2115385,42.5 L87.2115385,43.0769231 L87.2115385,43.4615385 L87.2115385,43.4615385 Z" id="Shape"></path>
                        <path d="M62.4038462,18.8461538 C61.8269231,18.4615385 61.25,18.0769231 60.7692308,17.6923077 C59.0384615,16.6346154 57.2115385,15.6730769 55.2884615,15 L55.1923077,15 C55.0961538,15 54.9038462,14.9038462 54.8076923,14.9038462 C54.7115385,14.8076923 54.5192308,14.8076923 54.4230769,14.7115385 L54.3269231,14.7115385 C51.0576923,13.5576923 47.5,13.0769231 43.9423077,13.1730769 L43.6538462,13.1730769 L43.3653846,13.1730769 C40.2884615,13.2692308 37.3076923,13.8461538 34.4230769,14.9038462 L34.4230769,14.9038462 C34.2307692,15 34.0384615,15 33.8461538,15.0961538 C33.75,15.0961538 33.6538462,15.1923077 33.5576923,15.1923077 C33.4615385,15.1923077 33.3653846,15.2884615 33.2692308,15.2884615 C30.3846154,16.3461538 27.9807692,17.8846154 25.6730769,19.7115385 C25.0961538,20.1923077 24.5192308,20.5769231 24.0384615,21.0576923 C13.9423077,28.1730769 9.80769231,42.6923077 15.6730769,53.75 L15.6730769,53.75 C15.8653846,53.9423077 15.9615385,54.2307692 15.9615385,54.5192308 C15.9615385,54.6153846 16.0576923,54.7115385 16.0576923,54.8076923 C16.6346154,56.1538462 17.2115385,57.5 17.9807692,58.75 C18.3653846,59.4230769 18.6538462,60 19.0384615,60.5769231 C23.2692308,68.4615385 31.25,73.2692308 39.8076923,73.8461538 C40.5769231,73.9423077 41.3461538,74.0384615 42.0192308,74.0384615 C42.7884615,74.1346154 43.5576923,74.1346154 44.3269231,74.1346154 L44.5192308,74.1346154 L44.8076923,74.1346154 C55.0961538,72.6923077 65.7692308,68.3653846 70.6730769,58.5576923 C71.1538462,57.7884615 71.6346154,57.0192308 72.1153846,56.1538462 C72.4038462,55.5769231 72.5961538,55 72.8846154,54.3269231 L72.8846154,54.2307692 C72.9807692,54.1346154 72.9807692,53.9423077 72.9807692,53.8461538 C73.0769231,53.75 73.0769231,53.5576923 73.0769231,53.4615385 L73.0769231,53.3653846 C77.9807692,41.0576923 73.6538462,25.5769231 62.4038462,18.8461538 M72.1153846,53.1730769 C71.7307692,54.1346154 71.25,55.0961538 70.6730769,56.0576923 C65.3846154,68.5576923 50.7692308,74.2307692 37.7884615,72.4038462 C36.7307692,72.2115385 35.6730769,71.9230769 34.6153846,71.6346154 C27.4038462,69.4230769 21.4423077,64.1346154 18.4615385,57.0192308 C18.1730769,56.25 17.7884615,55.5769231 17.4038462,54.8076923 C16.3461538,52.5961538 15.2884615,50.2884615 14.7115385,47.8846154 C14.4230769,46.9230769 14.2307692,46.0576923 14.0384615,45.0961538 C11.6346154,34.0384615 19.9038462,25 28.1730769,19.0384615 C28.9423077,18.5576923 29.7115385,18.0769231 30.5769231,17.5961538 C31.4423077,17.1153846 32.2115385,16.7307692 33.0769231,16.3461538 L33.0769231,16.3461538 C33.1730769,16.25 33.3653846,16.25 33.4615385,16.1538462 C33.5576923,16.1538462 33.6538462,16.0576923 33.75,16.0576923 C33.8461538,16.0576923 33.8461538,16.0576923 33.9423077,15.9615385 C35.0961538,15.5769231 36.25,15.1923077 37.4038462,14.9038462 C39.3269231,14.4230769 41.25,14.2307692 43.1730769,14.1346154 L43.3653846,14.1346154 L43.6538462,14.1346154 C45.7692308,14.1346154 47.8846154,14.2307692 50.0961538,14.7115385 C51.5384615,15 52.9807692,15.3846154 54.3269231,15.8653846 C54.4230769,15.8653846 54.4230769,15.8653846 54.5192308,15.9615385 C54.9038462,16.0576923 55.1923077,16.25 55.5769231,16.3461538 C55.7692308,16.4423077 55.9615385,16.4423077 56.0576923,16.5384615 C56.25,16.6346154 56.5384615,16.7307692 56.7307692,16.8269231 C57.0192308,16.9230769 57.3076923,17.1153846 57.5961538,17.2115385 C57.6923077,17.3076923 57.7884615,17.3076923 57.8846154,17.4038462 C58.2692308,17.5961538 58.5576923,17.7884615 58.9423077,17.9807692 L59.0384615,18.0769231 C71.7307692,24.7115385 77.5961538,40.3846154 72.1153846,53.1730769" id="Shape"></path>
                    </g>
                    <path d="M85.1923077,49.0384615 L85.1923077,49.0384615 C85.0961538,45.0961538 84.2307692,41.3461538 82.9807692,37.7884615 L82.9807692,37.6923077 C82.8846154,37.5 82.8846154,37.3076923 82.7884615,37.2115385 C82.6923077,37.1153846 82.6923077,36.9230769 82.5961538,36.8269231 C82.5961538,36.7307692 82.5,36.7307692 82.5,36.6346154 C80.6730769,32.3076923 77.9807692,28.3653846 74.7115385,25.1923077 C74.6153846,25.0961538 74.5192308,25 74.5192308,25 L74.4230769,24.9038462 C71.0576923,21.7307692 67.1153846,19.1346154 62.5961538,17.5 L62.5,17.5 C62.3076923,17.4038462 62.2115385,17.4038462 62.0192308,17.3076923 C61.8269231,17.2115385 61.7307692,17.2115385 61.5384615,17.1153846 L61.4423077,17.1153846 C60.7692308,16.9230769 60.1923077,16.7307692 59.5192308,16.5384615 C56.1538462,15.2884615 52.5961538,15.8653846 48.9423077,15.2884615 C48.2692308,15.2884615 47.5961538,15.3846154 46.9230769,15.3846154 C45,15.5769231 42.9807692,15.9615385 41.1538462,16.4423077 C40.2884615,16.6346154 39.5192308,16.9230769 38.6538462,17.2115385 C34.6153846,19.0384615 30.6730769,21.3461538 27.3076923,24.1346154 C26.6346154,24.7115385 25.9615385,25.2884615 25.3846154,25.8653846 C17.5,33.0769231 13.9423077,43.75 15.5769231,54.0384615 C15.6730769,54.9038462 15.7692308,55.7692308 15.9615385,56.6346154 C16.25,58.3653846 16.7307692,60.0961538 17.3076923,61.7307692 L17.3076923,61.7307692 C17.4038462,61.9230769 17.5,62.1153846 17.5,62.4038462 C17.5,62.5 17.5961538,62.5961538 17.5961538,62.6923077 C17.5961538,62.7884615 17.6923077,62.8846154 17.6923077,62.9807692 C18.9423077,66.1538462 20.5769231,69.0384615 22.5961538,71.5384615 C23.0769231,72.2115385 23.6538462,72.7884615 24.1346154,73.3653846 C27.1153846,77.1153846 31.1538462,79.9038462 35.7692308,81.9230769 C36.5384615,82.2115385 37.2115385,82.5961538 37.9807692,82.7884615 L37.9807692,82.7884615 C38.1730769,82.8846154 38.3653846,82.8846154 38.5576923,82.9807692 C38.6538462,82.9807692 38.8461538,83.0769231 38.9423077,83.0769231 C39.0384615,83.0769231 39.1346154,83.1730769 39.1346154,83.1730769 C40.2884615,83.5576923 41.5384615,83.8461538 42.6923077,84.1346154 C45.1923077,84.7115385 47.9807692,84.9038462 50.7692308,84.9038462 C51.8269231,84.9038462 52.9807692,84.8076923 54.0384615,84.7115385 C60.0961538,84.1346154 66.1538462,82.0192308 71.1538462,78.5576923 C72.0192308,77.9807692 72.7884615,77.4038462 73.5576923,76.7307692 C74.3269231,76.0576923 75.0961538,75.3846154 75.7692308,74.7115385 C76.4423077,74.0384615 77.1153846,73.2692308 77.7884615,72.5 C79.6153846,70.0961538 81.1538462,67.5 82.1153846,64.5192308 C82.4038462,63.8461538 82.6923077,63.0769231 82.9807692,62.4038462 C82.9807692,62.3076923 82.9807692,62.3076923 83.0769231,62.2115385 C83.1730769,62.1153846 83.1730769,61.9230769 83.2692308,61.8269231 C83.3653846,61.6346154 83.3653846,61.4423077 83.4615385,61.3461538 L83.4615385,61.25 C84.6153846,57.6923077 85.2884615,53.9423077 85.2884615,50.0961538 L85.2884615,50 L85.2884615,49.5192308 C85.1923077,49.4230769 85.1923077,49.2307692 85.1923077,49.0384615 L85.1923077,49.0384615 Z M84.0384615,50.1923077 C84.0384615,52.4038462 83.8461538,54.6153846 83.3653846,56.9230769 C83.0769231,58.3653846 82.6923077,59.7115385 82.3076923,61.0576923 L82.3076923,61.1538462 C82.2115385,61.3461538 82.2115385,61.5384615 82.1153846,61.7307692 C82.1153846,61.8269231 82.0192308,61.9230769 82.0192308,62.1153846 C82.0192308,62.2115385 82.0192308,62.2115385 81.9230769,62.3076923 C81.25,64.4230769 80.2884615,66.4423077 79.1346154,68.3653846 C78.5576923,69.3269231 77.8846154,70.1923077 77.2115385,71.0576923 C74.0384615,75.7692308 68.8461538,78.4615385 63.8461538,81.1538462 C62.7884615,81.6346154 61.7307692,82.0192308 60.6730769,82.4038462 C57.5,83.4615385 54.1346154,84.1346154 50.8653846,84.2307692 L50.5769231,84.2307692 L50.2884615,84.2307692 C49.2307692,84.2307692 48.0769231,84.1346154 47.0192308,84.0384615 C45.9615385,83.9423077 44.8076923,83.75 43.75,83.5576923 C43.0769231,83.4615385 42.4038462,83.2692308 41.7307692,83.0769231 C36.0576923,81.6346154 30.6730769,78.5576923 26.8269231,74.7115385 C25.9615385,73.8461538 25.1923077,72.9807692 24.4230769,72.0192308 C23.6538462,71.0576923 22.9807692,70.0961538 22.3076923,69.1346154 C20.9615385,67.2115385 19.9038462,65.0961538 19.0384615,62.8846154 C19.0384615,62.7884615 18.9423077,62.6923077 18.9423077,62.5 C18.9423077,62.4038462 18.8461538,62.4038462 18.8461538,62.3076923 C18.3653846,61.0576923 17.9807692,59.7115385 17.5961538,58.3653846 C17.3076923,57.2115385 17.1153846,56.1538462 16.9230769,55 C16.7307692,53.9423077 16.6346154,52.7884615 16.5384615,51.7307692 C15.5769231,42.4038462 19.2307692,33.2692308 26.0576923,27.3076923 C26.7307692,26.7307692 27.3076923,26.25 27.9807692,25.6730769 C31.25,22.9807692 34.8076923,20.4807692 38.6538462,18.8461538 C39.3269231,18.5576923 39.9038462,18.3653846 40.5769231,18.1730769 C41.25,17.9807692 41.9230769,17.7884615 42.5961538,17.5961538 C44.8076923,17.0192308 47.0192308,16.7307692 49.1346154,16.6346154 L49.4230769,16.6346154 L49.7115385,16.6346154 C50.9615385,16.6346154 52.1153846,16.6346154 53.3653846,16.7307692 C54.7115385,16.7307692 55.9615385,16.7307692 57.1153846,17.3076923 C57.7884615,17.4038462 58.5576923,17.5961538 59.2307692,17.7884615 C59.9038462,17.9807692 60.5769231,18.1730769 61.25,18.3653846 L61.3461538,18.3653846 C61.5384615,18.4615385 61.7307692,18.4615385 61.8269231,18.5576923 C61.9230769,18.5576923 62.1153846,18.6538462 62.2115385,18.6538462 C62.3076923,18.6538462 62.3076923,18.6538462 62.4038462,18.75 C64.4230769,19.5192308 66.3461538,20.4807692 68.0769231,21.5384615 C70.0961538,22.7884615 72.0192308,24.2307692 73.8461538,25.9615385 C73.8461538,25.9615385 73.8461538,25.9615385 73.9423077,26.0576923 C74.0384615,26.1538462 74.1346154,26.25 74.2307692,26.3461538 C75.8653846,27.9807692 77.4038462,29.8076923 78.6538462,31.7307692 C79.2307692,32.5961538 79.8076923,33.5576923 80.2884615,34.4230769 C80.7692308,35.3846154 81.25,36.3461538 81.6346154,37.3076923 C81.8269231,37.5 81.8269231,37.5 81.8269231,37.8846154 C81.9230769,38.0769231 82.0192308,38.2692308 82.0192308,38.4615385 C82.0192308,38.4615385 82.0192308,38.4615385 82.0192308,38.5576923 C82.5,39.9038462 82.9807692,41.25 83.2692308,42.5961538 C83.8461538,44.8076923 84.1346154,47.1153846 84.2307692,49.3269231 L84.2307692,49.4230769 L84.2307692,49.9038462 L84.2307692,50.3846154 L84.2307692,50.1923077 L84.0384615,50.1923077 Z" id="Shape" fill="#70A132"></path>
                    <g id="Group" transform="translate(18.269231, 19.230769)" fill="#007481">
                        <path d="M55.6730769,21.7307692 C54.2307692,16.9230769 51.25,12.6923077 47.5,9.71153846 C46.7307692,9.13461538 45.9615385,8.55769231 45.0961538,8.07692308 C31.5384615,-0.673076923 12.1153846,6.82692308 6.73076923,21.9230769 C6.25,22.8846154 5.86538462,23.9423077 5.48076923,24.9038462 C1.34615385,37.2115385 9.03846154,51.25 22.3076923,55 L22.4038462,55 C22.5,55 22.5961538,55.0961538 22.7884615,55.0961538 C22.8846154,55.0961538 22.9807692,55.1923077 23.0769231,55.1923077 L23.1730769,55.1923077 C25.7692308,56.0576923 28.5576923,56.5384615 31.4423077,56.5384615 L31.4423077,56.5384615 L31.8269231,56.5384615 L32.1153846,56.5384615 L32.3076923,56.5384615 C35.0961538,56.4423077 37.8846154,55.8653846 40.3846154,54.9038462 C40.4807692,54.9038462 40.4807692,54.9038462 40.5769231,54.8076923 C40.6730769,54.8076923 40.7692308,54.7115385 40.8653846,54.7115385 C40.9615385,54.6153846 41.1538462,54.6153846 41.25,54.5192308 L41.25,54.5192308 C42.8846154,53.8461538 44.4230769,52.9807692 45.7692308,52.0192308 C46.4423077,51.5384615 47.1153846,51.0576923 47.7884615,50.5769231 C57.2115385,44.4230769 62.2115385,31.6346154 55.6730769,21.7307692 L55.6730769,21.7307692 M42.9807692,52.5 C42.3076923,52.8846154 41.6346154,53.1730769 40.9615385,53.4615385 C40.8653846,53.4615385 40.7692308,53.5576923 40.6730769,53.5576923 C40.4807692,53.6538462 40.3846154,53.6538462 40.1923077,53.75 C40,53.8461538 39.7115385,53.9423077 39.5192308,54.0384615 C39.4230769,54.0384615 39.3269231,54.1346154 39.3269231,54.1346154 C39.0384615,54.2307692 38.6538462,54.3269231 38.3653846,54.4230769 C38.3653846,54.4230769 38.3653846,54.4230769 38.2692308,54.4230769 C37.8846154,54.5192308 37.5,54.6153846 37.1153846,54.7115385 L37.1153846,54.7115385 C36.7307692,54.8076923 36.3461538,54.9038462 35.8653846,55 C35.8653846,55 35.8653846,55 35.7692308,55 C35.3846154,55.0961538 35,55.0961538 34.6153846,55.1923077 L34.4230769,55.1923077 C34.1346154,55.1923077 33.75,55.2884615 33.4615385,55.2884615 L33.0769231,55.2884615 L32.3076923,55.2884615 L31.7307692,55.2884615 L31.1538462,55.2884615 L30.2884615,55.2884615 L30,55.2884615 C29.6153846,55.2884615 29.3269231,55.2884615 28.9423077,55.1923077 L28.8461538,55.1923077 C28.0769231,55.0961538 27.2115385,55 26.4423077,54.8076923 C25.6730769,54.6153846 24.9038462,54.4230769 24.1346154,54.2307692 C24.0384615,54.2307692 24.0384615,54.2307692 23.9423077,54.1346154 C23.6538462,54.0384615 23.3653846,53.9423077 23.1730769,53.8461538 C22.9807692,53.8461538 22.8846154,53.75 22.7884615,53.6538462 C10.7692308,50.2884615 1.15384615,38.3653846 6.44230769,25.1923077 C6.92307692,24.0384615 7.40384615,22.8846154 7.78846154,21.9230769 C12.3076923,8.26923077 28.8461538,1.44230769 41.6346154,7.21153846 C42.5961538,7.69230769 43.5576923,8.17307692 44.4230769,8.75 C48.9423077,11.5384615 52.5,15.8653846 54.2307692,21.1538462 C54.6153846,21.9230769 55.0961538,22.7884615 55.4807692,23.6538462 C55.6730769,24.0384615 55.7692308,24.3269231 55.8653846,24.7115385 C60.5769231,35.9615385 52.6923077,47.3076923 42.9807692,52.5" id="Shape"></path>
                        <path d="M59.7115385,20.6730769 C59.5192308,20.4807692 59.4230769,20.1923077 59.4230769,19.9038462 C59.4230769,19.8076923 59.3269231,19.7115385 59.3269231,19.6153846 C58.75,18.2692308 58.1730769,16.9230769 57.4038462,15.7692308 C57.0192308,15.1923077 56.7307692,14.5192308 56.3461538,13.9423077 C52.1153846,6.15384615 44.2307692,1.44230769 35.6730769,0.961538462 C34.9038462,0.865384615 34.2307692,0.769230769 33.4615385,0.769230769 C32.6923077,0.673076923 31.9230769,0.673076923 31.1538462,0.673076923 L30.9615385,0.673076923 L30.6730769,0.673076923 C20.4807692,2.11538462 10,6.53846154 5.09615385,16.25 C4.61538462,17.0192308 4.13461538,17.7884615 3.65384615,18.5576923 C3.36538462,19.1346154 3.17307692,19.7115385 2.88461538,20.3846154 L2.88461538,20.4807692 C2.78846154,20.5769231 2.78846154,20.7692308 2.78846154,20.8653846 C2.78846154,20.9615385 2.69230769,21.1538462 2.69230769,21.25 C2.69230769,21.25 2.69230769,21.3461538 2.59615385,21.3461538 C-1.92307692,33.3653846 2.40384615,48.75 13.6538462,55.3846154 C14.2307692,55.7692308 14.7115385,56.1538462 15.2884615,56.5384615 C17.0192308,57.5961538 18.8461538,58.5576923 20.7692308,59.2307692 L20.8653846,59.2307692 C20.9615385,59.2307692 21.1538462,59.3269231 21.25,59.3269231 C21.3461538,59.4230769 21.5384615,59.4230769 21.6346154,59.5192308 L21.7307692,59.5192308 C25,60.5769231 28.4615385,61.1538462 32.0192308,61.0576923 L32.3076923,61.0576923 L32.5961538,61.0576923 C35.6730769,60.9615385 38.6538462,60.2884615 41.4423077,59.3269231 L41.4423077,59.3269231 C41.6346154,59.2307692 41.8269231,59.2307692 42.0192308,59.1346154 C42.1153846,59.1346154 42.2115385,59.0384615 42.3076923,59.0384615 C42.4038462,59.0384615 42.5,58.9423077 42.5961538,58.9423077 C45.3846154,57.8846154 47.7884615,56.3461538 50.0961538,54.5192308 C50.6730769,54.0384615 51.25,53.6538462 51.7307692,53.1730769 C61.5384615,46.0576923 65.5769231,31.7307692 59.7115385,20.6730769 L59.7115385,20.6730769 M61.25,29.1346154 C63.6538462,40.0961538 55.4807692,49.1346154 47.3076923,55 C46.5384615,55.4807692 45.7692308,55.9615385 44.9038462,56.4423077 C44.0384615,56.9230769 43.2692308,57.3076923 42.4038462,57.6923077 L42.4038462,57.6923077 C42.3076923,57.7884615 42.1153846,57.7884615 42.0192308,57.8846154 C41.9230769,57.8846154 41.8269231,57.9807692 41.7307692,57.9807692 C41.6346154,57.9807692 41.6346154,57.9807692 41.5384615,58.0769231 C40.4807692,58.4615385 39.3269231,58.8461538 38.0769231,59.1346154 C36.1538462,59.6153846 34.3269231,59.9038462 32.4038462,59.9038462 L32.2115385,59.9038462 L31.9230769,59.9038462 C29.8076923,60 27.6923077,59.8076923 25.5769231,59.3269231 C24.1346154,59.0384615 22.6923077,58.6538462 21.3461538,58.1730769 C21.25,58.1730769 21.25,58.1730769 21.1538462,58.0769231 C20.7692308,57.9807692 20.4807692,57.7884615 20.0961538,57.6923077 C19.9038462,57.5961538 19.7115385,57.5961538 19.6153846,57.5 C19.4230769,57.4038462 19.1346154,57.3076923 18.9423077,57.2115385 C18.6538462,57.1153846 18.3653846,56.9230769 18.0769231,56.8269231 C17.9807692,56.7307692 17.8846154,56.7307692 17.7884615,56.6346154 C17.4038462,56.4423077 17.1153846,56.25 16.7307692,56.0576923 L16.6346154,55.9615385 C4.23076923,49.5192308 -1.63461538,34.0384615 3.75,21.25 C4.13461538,20.2884615 4.61538462,19.3269231 5.19230769,18.3653846 C10.3846154,5.96153846 24.8076923,0.288461538 37.6923077,2.01923077 C38.75,2.21153846 39.8076923,2.5 40.7692308,2.78846154 C47.8846154,5 53.8461538,10.1923077 56.8269231,17.2115385 C57.1153846,17.8846154 57.5,18.6538462 57.8846154,19.4230769 C58.9423077,21.6346154 60,23.8461538 60.5769231,26.25 C60.8653846,27.2115385 61.0576923,28.1730769 61.25,29.1346154" id="Shape"></path>
                        <path d="M33.3653846,30.5769231 L33.3653846,30.5769231 L33.3653846,30.3846154 C33.3653846,30.3846154 33.3653846,30.3846154 33.3653846,30.2884615 L33.3653846,30.1923077 C32.6923077,28.5576923 29.8076923,28.0769231 29.3269231,29.9038462 L29.3269231,30 C28.6538462,30.4807692 29.1346154,31.3461538 29.3269231,31.8269231 L29.3269231,31.9230769 C29.3269231,31.9230769 29.3269231,32.0192308 29.4230769,32.0192308 C29.4230769,32.0192308 29.4230769,32.1153846 29.5192308,32.1153846 C29.5192308,32.1153846 29.5192308,32.2115385 29.6153846,32.2115385 C29.6153846,32.2115385 29.6153846,32.3076923 29.7115385,32.3076923 C29.7115385,32.3076923 29.7115385,32.4038462 29.8076923,32.4038462 C29.8076923,32.4038462 29.8076923,32.5 29.9038462,32.5 L30,32.5961538 C30,32.5961538 30,32.5961538 30.0961538,32.6923077 L30.1923077,32.7884615 L30.2884615,32.7884615 L30.3846154,32.8846154 L30.4807692,32.8846154 C30.4807692,32.8846154 30.5769231,32.8846154 30.5769231,32.9807692 L30.6730769,32.9807692 L30.7692308,32.9807692 L30.8653846,32.9807692 L30.9615385,32.9807692 L31.0576923,32.9807692 L31.1538462,32.9807692 L31.1538462,32.9807692 L31.25,32.9807692 L31.3461538,32.9807692 L31.4423077,32.9807692 L31.5384615,32.9807692 L31.6346154,32.9807692 L31.7307692,32.9807692 L31.8269231,32.9807692 L31.9230769,32.9807692 L31.9230769,32.9807692 L32.0192308,32.9807692 L32.1153846,32.9807692 L32.2115385,32.9807692 L32.3076923,32.9807692 C32.3076923,32.9807692 32.4038462,32.9807692 32.4038462,32.8846154 L32.5,32.8846154 C32.5,32.8846154 32.5961538,32.8846154 32.5961538,32.7884615 L32.6923077,32.7884615 L32.7884615,32.6923077 C32.7884615,32.6923077 32.7884615,32.6923077 32.8846154,32.5961538 L32.9807692,32.5 L33.0769231,32.4038462 L33.1730769,32.3076923 C33.1730769,32.3076923 33.1730769,32.2115385 33.2692308,32.2115385 C33.2692308,32.2115385 33.2692308,32.2115385 33.3653846,32.1153846 L33.4615385,32.0192308 L33.4615385,31.9230769 C33.4615385,31.9230769 33.4615385,31.8269231 33.5576923,31.8269231 L33.5576923,31.7307692 L33.5576923,31.6346154 L33.5576923,31.5384615 L33.5576923,31.4423077 L33.5576923,31.3461538 L33.5576923,31.3461538 L33.5576923,31.3461538 L33.5576923,31.25 L33.5576923,31.1538462 L33.5576923,31.0576923 L33.5576923,30.9615385 L33.5576923,30.8653846 C33.3653846,30.6730769 33.3653846,30.6730769 33.3653846,30.5769231 M31.8269231,32.2115385 C31.3461538,32.5 30.6730769,32.5961538 30.1923077,32.3076923 C29.4230769,32.3076923 28.8461538,31.4423077 29.1346154,30.6730769 C29.1346154,30.4807692 29.2307692,30.3846154 29.3269231,30.1923077 C29.3269231,29.7115385 29.7115385,29.2307692 30.1923077,29.2307692 C30.2884615,29.1346154 30.4807692,29.0384615 30.6730769,28.9423077 C31.5384615,28.75 32.5,29.2307692 32.6923077,30.0961538 C32.8846154,31.0576923 32.5961538,31.8269231 31.8269231,32.2115385" id="Shape"></path>
                        <path d="M38.8461538,28.5576923 C39.2307692,28.1730769 38.5576923,27.9807692 38.5576923,27.6923077 C37.2115385,24.0384615 33.2692308,22.5961538 29.9038462,23.75 C28.4615385,24.1346154 27.1153846,24.7115385 25.7692308,25.6730769 C24.8076923,26.5384615 24.4230769,27.7884615 23.9423077,29.2307692 C23.8461538,30.0961538 23.9423077,30.9615385 24.1346154,31.7307692 C24.4230769,33.4615385 25.0961538,35.0961538 26.0576923,36.5384615 C27.0192308,37.7884615 28.3653846,38.6538462 30,38.8461538 L30.3846154,38.8461538 L30.4807692,38.8461538 L30.7692308,38.8461538 L30.8653846,38.8461538 L31.1538462,38.8461538 L31.3461538,38.8461538 L31.5384615,38.8461538 L31.8269231,38.8461538 L31.9230769,38.8461538 L32.2115385,38.8461538 L32.3076923,38.8461538 C32.4038462,38.8461538 32.5961538,38.8461538 32.6923077,38.75 L32.6923077,38.75 C32.9807692,38.6538462 33.2692308,38.6538462 33.4615385,38.5576923 L33.4615385,38.5576923 C33.5576923,38.5576923 33.6538462,38.4615385 33.75,38.4615385 L33.8461538,38.4615385 C33.9423077,38.4615385 34.0384615,38.3653846 34.1346154,38.3653846 C34.2307692,38.3653846 34.2307692,38.3653846 34.3269231,38.2692308 C34.3269231,38.2692308 34.4230769,38.2692308 34.4230769,38.1730769 C35.3846154,37.7884615 36.1538462,37.2115385 36.8269231,36.5384615 L36.8269231,36.5384615 L36.9230769,36.4423077 C37.0192308,36.3461538 37.0192308,36.3461538 37.1153846,36.25 L37.1153846,36.25 C39.1346154,34.2307692 38.9423077,31.1538462 38.8461538,28.8461538 C38.9423077,28.8461538 38.9423077,28.6538462 38.8461538,28.5576923 M36.3461538,35.4807692 L36.3461538,35.4807692 C36.3461538,35.5769231 36.25,35.5769231 36.25,35.5769231 C35.3846154,36.5384615 34.2307692,37.2115385 32.9807692,37.5 L32.9807692,37.5 C32.8846154,37.5 32.7884615,37.5 32.6923077,37.5961538 L32.5961538,37.5961538 L32.4038462,37.5961538 L32.3076923,37.5961538 L32.1153846,37.5961538 L31.9230769,37.5961538 L31.7307692,37.5961538 L31.5384615,37.5961538 L31.3461538,37.5961538 L31.1538462,37.5961538 L30.9615385,37.5961538 L30.7692308,37.5961538 L30.5769231,37.5961538 L30.3846154,37.5961538 L30.2884615,37.5961538 L30.0961538,37.5961538 L30,37.5961538 C27.0192308,37.1153846 25.0961538,34.2307692 24.7115385,31.1538462 C24.6153846,30.3846154 24.6153846,29.6153846 24.7115385,28.9423077 C25.8653846,24.9038462 30.9615385,23.3653846 34.3269231,25 C35,25.3846154 36.0576923,25.7692308 36.5384615,26.5384615 C37.0192308,27.3076923 37.7884615,28.0769231 37.6923077,29.0384615 L37.6923077,29.0384615 C38.4615385,31.3461538 37.7884615,33.6538462 36.3461538,35.4807692" id="Shape"></path>
                        <path d="M51.6346154,24.4230769 C51.5384615,24.1346154 51.4423077,23.9423077 51.4423077,23.75 C50.2884615,20.8653846 48.5576923,18.2692308 46.4423077,16.1538462 C45.7692308,15.3846154 45,14.7115385 44.2307692,14.1346154 C35.4807692,5.48076923 20.5769231,7.59615385 13.9423077,17.7884615 C12.1153846,20.3846154 10.9615385,22.7884615 9.90384615,25.7692308 C9.61538462,26.6346154 9.32692308,27.5961538 9.03846154,28.5576923 C8.07692308,32.4038462 8.36538462,36.5384615 10.3846154,40.4807692 C13.6538462,46.3461538 19.6153846,49.7115385 26.1538462,51.3461538 L26.1538462,51.3461538 C26.8269231,51.5384615 27.5,51.6346154 28.2692308,51.7307692 L28.2692308,51.7307692 C28.5576923,51.7307692 28.9423077,51.8269231 29.2307692,51.8269231 L29.4230769,51.8269231 C29.7115385,51.8269231 30,51.8269231 30.2884615,51.9230769 L30.5769231,51.9230769 L31.25,51.9230769 L31.7307692,51.9230769 L32.2115385,51.9230769 L32.8846154,51.9230769 L33.2692308,51.9230769 C33.5576923,51.9230769 33.8461538,51.8269231 34.0384615,51.8269231 L34.2307692,51.8269231 C34.5192308,51.8269231 34.8076923,51.7307692 35.1923077,51.6346154 L35.2884615,51.6346154 C35.6730769,51.5384615 35.9615385,51.5384615 36.25,51.4423077 L36.25,51.4423077 L36.25,51.4423077 C36.5384615,51.3461538 36.9230769,51.25 37.2115385,51.1538462 L37.3076923,51.1538462 C37.5961538,51.0576923 37.8846154,50.9615385 38.1730769,50.8653846 C38.2692308,50.8653846 38.3653846,50.8653846 38.3653846,50.7692308 C38.5576923,50.6730769 38.75,50.5769231 38.9423077,50.5769231 C39.1346154,50.4807692 39.2307692,50.4807692 39.4230769,50.3846154 C39.5192308,50.3846154 39.6153846,50.2884615 39.6153846,50.2884615 C40.1923077,50 40.8653846,49.7115385 41.3461538,49.4230769 C49.1346154,45.4807692 52.7884615,35.7692308 52.0192308,27.3076923 C51.9230769,26.25 51.8269231,25.3846154 51.6346154,24.4230769 M41.0576923,48.8461538 C40.4807692,49.1346154 40,49.4230769 39.4230769,49.6153846 C39.3269231,49.6153846 39.2307692,49.7115385 39.1346154,49.7115385 C39.0384615,49.8076923 38.8461538,49.8076923 38.75,49.9038462 C38.5576923,50 38.3653846,50.0961538 38.1730769,50.0961538 C38.0769231,50.0961538 38.0769231,50.0961538 37.9807692,50.1923077 C37.6923077,50.2884615 37.4038462,50.3846154 37.1153846,50.4807692 L37.1153846,50.4807692 C36.8269231,50.5769231 36.4423077,50.6730769 36.1538462,50.7692308 C35.7692308,50.8653846 35.4807692,50.9615385 35.0961538,50.9615385 L35.0961538,50.9615385 C34.8076923,51.0576923 34.5192308,51.0576923 34.1346154,51.1538462 L33.9423077,51.1538462 C33.6538462,51.1538462 33.3653846,51.25 33.1730769,51.25 L32.8846154,51.25 L32.2115385,51.25 L31.7307692,51.25 L31.25,51.25 L30.5769231,51.25 L30.2884615,51.25 C30,51.25 29.7115385,51.25 29.4230769,51.1538462 L29.3269231,51.1538462 C28.6538462,51.0576923 27.9807692,50.9615385 27.3076923,50.8653846 C16.3461538,49.5192308 7.21153846,39.7115385 9.51923077,28.75 C9.71153846,27.7884615 10,26.7307692 10.3846154,25.7692308 C13.4615385,15.8653846 23.4615385,7.01923077 34.4230769,9.80769231 C38.2692308,10.6730769 41.5384615,12.5961538 44.4230769,15.0961538 C45.1923077,15.7692308 45.8653846,16.3461538 46.4423077,17.1153846 C48.4615385,19.2307692 50,21.8269231 50.8653846,24.5192308 L50.8653846,24.5192308 C51.0576923,25.3846154 51.1538462,26.3461538 51.25,27.3076923 C51.9230769,35.7692308 48.3653846,44.7115385 41.0576923,48.8461538" id="Shape"></path>
                    </g>
                    <path d="M92.9807692,49.1346154 L92.9807692,48.5576923 L92.9807692,48.3653846 C92.7884615,43.6538462 91.8269231,39.0384615 90.1923077,34.7115385 C90.1923077,34.6153846 90.0961538,34.5192308 90.0961538,34.3269231 C90,34.2307692 90,34.0384615 89.9038462,33.9423077 C89.5192308,32.9807692 89.1346154,32.0192308 88.6538462,31.0576923 C88.1730769,30.0961538 87.6923077,29.2307692 87.2115385,28.3653846 C81.5384615,20 73.6538462,12.7884615 63.8461538,9.03846154 C63.6538462,8.94230769 63.5576923,8.94230769 63.4615385,8.94230769 C58.2692308,7.59615385 52.7884615,7.01923077 47.4038462,7.30769231 C46.3461538,7.40384615 45.1923077,7.40384615 44.1346154,7.59615385 C33.9423077,10.3846154 22.7884615,14.2307692 15.7692308,22.5961538 C15.0961538,23.3653846 14.5192308,24.1346154 13.9423077,25 C9.32692308,33.2692308 5.76923077,42.0192308 6.05769231,51.25 C6.15384615,52.2115385 6.25,53.0769231 6.44230769,54.0384615 C7.30769231,59.1346154 9.03846154,64.0384615 11.3461538,68.75 C11.8269231,69.7115385 12.3076923,70.5769231 12.7884615,71.5384615 C13.8461538,73.2692308 14.9038462,75.0961538 16.0576923,76.8269231 C16.4423077,77.4038462 16.8269231,77.9807692 17.2115385,78.5576923 C18.4615385,80.1923077 19.5192308,82.1153846 21.25,83.2692308 C22.0192308,83.9423077 22.8846154,84.6153846 23.75,85.2884615 C24.6153846,85.9615385 25.4807692,86.5384615 26.4423077,87.1153846 C27.3076923,87.5961538 28.0769231,88.0769231 28.9423077,88.5576923 C38.0769231,92.1153846 48.4615385,93.75 58.3653846,92.7884615 C59.1346154,92.5961538 59.9038462,92.5 60.5769231,92.2115385 C62.3076923,91.7307692 64.1346154,91.1538462 65.7692308,90.4807692 C66.6346154,90.0961538 67.5,89.8076923 68.3653846,89.4230769 C70,88.4615385 71.7307692,88.0769231 73.2692308,86.8269231 C74.0384615,86.3461538 74.8076923,85.8653846 75.5769231,85.2884615 C78.5576923,83.1730769 81.1538462,80.6730769 83.3653846,77.6923077 C83.9423077,77.0192308 84.4230769,76.25 85,75.4807692 C87.4038462,72.2115385 89.2307692,68.5576923 90.6730769,64.5192308 C90.7692308,64.4230769 90.7692308,64.2307692 90.7692308,64.1346154 C90.7692308,64.0384615 90.8653846,63.9423077 90.8653846,63.75 C90.9615385,63.4615385 91.0576923,63.1730769 91.1538462,62.8846154 C92.4038462,58.75 93.0769231,54.3269231 93.0769231,49.9038462 L93.0769231,49.7115385 C92.9807692,49.5192308 92.9807692,49.3269231 92.9807692,49.1346154 L92.9807692,49.1346154 Z M91.8269231,49.9038462 C91.8269231,52.6923077 91.5384615,55.4807692 91.0576923,58.3653846 C90.6730769,60.0961538 90.2884615,61.8269231 89.7115385,63.4615385 C89.7115385,63.5576923 89.6153846,63.6538462 89.6153846,63.75 C89.5192308,63.9423077 89.5192308,64.0384615 89.4230769,64.2307692 C89.3269231,64.4230769 89.2307692,64.6153846 89.2307692,64.9038462 L89.2307692,64.9038462 C88.2692308,67.4038462 87.1153846,69.9038462 85.6730769,72.2115385 C85.2884615,72.8846154 84.9038462,73.4615385 84.4230769,74.1346154 C84.0384615,74.7115385 83.6538462,75.2884615 83.1730769,75.8653846 C78.3653846,82.2115385 71.7307692,87.2115385 64.3269231,90 C63.5576923,90.2884615 62.8846154,90.4807692 62.0192308,90.7692308 C61.1538462,91.0576923 60.3846154,91.25 59.5192308,91.4423077 C58.8461538,91.6346154 58.1730769,91.7307692 57.5,91.9230769 C48.0769231,92.2115385 38.0769231,91.25 29.2307692,87.5961538 C28.6538462,87.3076923 28.0769231,86.9230769 27.5,86.6346154 C24.9038462,85.0961538 22.5,83.2692308 20.3846154,81.1538462 L20.2884615,81.0576923 C18.2692308,78.5576923 16.4423077,76.0576923 14.8076923,73.1730769 C14.2307692,72.2115385 13.6538462,71.3461538 13.1730769,70.3846154 C10,64.7115385 7.78846154,58.5576923 7.21153846,52.1153846 L7.21153846,52.0192308 L7.21153846,51.4423077 L7.21153846,50.8653846 L7.21153846,50.7692308 L7.21153846,48.6538462 C7.40384615,40.2884615 10.9615385,32.7884615 14.8076923,25.6730769 C15.3846154,24.8076923 15.9615385,23.9423077 16.6346154,23.1730769 C23.1730769,15.1923077 34.0384615,11.8269231 43.5576923,9.13461538 C44.5192308,9.03846154 45.4807692,8.94230769 46.5384615,8.94230769 C52.5,8.75 58.4615385,9.42307692 64.1346154,10.7692308 L64.1346154,10.7692308 C64.8076923,10.9615385 65.3846154,11.25 66.0576923,11.5384615 C73.4615385,14.7115385 79.7115385,20.4807692 84.7115385,26.9230769 C85.0961538,27.5 85.4807692,27.9807692 85.8653846,28.5576923 C86.9230769,30.2884615 87.7884615,32.1153846 88.6538462,33.9423077 L88.6538462,33.9423077 C88.75,34.1346154 88.8461538,34.3269231 88.9423077,34.5192308 C89.0384615,34.7115385 89.0384615,34.8076923 89.1346154,35 C89.1346154,35.0961538 89.2307692,35.1923077 89.2307692,35.2884615 C89.8076923,36.9230769 90.3846154,38.5576923 90.7692308,40.2884615 C91.4423077,43.0769231 91.8269231,45.8653846 91.9230769,48.6538462 L91.9230769,48.75 L91.9230769,49.3269231 L91.9230769,49.9038462 L91.9230769,49.9038462 L91.8269231,49.9038462 Z" id="Shape" fill="#70A132"></path>
                    <path d="M83.4615385,43.4615385 C83.1730769,41.7307692 82.6923077,40.0961538 82.1153846,38.4615385 L82.1153846,38.4615385 C82.0192308,38.2692308 81.9230769,38.0769231 81.9230769,37.7884615 C81.9230769,37.6923077 81.8269231,37.5961538 81.8269231,37.5 C81.8269231,37.4038462 81.7307692,37.3076923 81.7307692,37.2115385 C80.4807692,34.1346154 78.8461538,31.25 76.8269231,28.75 C76.3461538,28.0769231 75.7692308,27.5 75.2884615,26.9230769 C72.3076923,23.1730769 68.2692308,20.4807692 63.75,18.5576923 C63.0769231,18.2692308 62.3076923,17.9807692 61.5384615,17.6923077 L61.5384615,17.6923077 C61.3461538,17.5961538 61.1538462,17.5961538 60.9615385,17.5 C60.8653846,17.5 60.6730769,17.4038462 60.5769231,17.4038462 C60.4807692,17.4038462 60.3846154,17.3076923 60.3846154,17.3076923 C59.2307692,16.9230769 58.0769231,16.6346154 56.8269231,16.3461538 C54.3269231,15.7692308 51.5384615,15.5769231 48.8461538,15.5769231 C47.7884615,15.5769231 46.6346154,15.6730769 45.5769231,15.7692308 C39.6153846,16.4423077 33.6538462,18.4615385 28.6538462,21.9230769 C27.7884615,22.5 27.0192308,23.0769231 26.25,23.75 C25.4807692,24.4230769 24.8076923,25.0961538 24.0384615,25.7692308 C23.3653846,26.4423077 22.6923077,27.2115385 22.1153846,27.9807692 C20.2884615,30.2884615 18.8461538,32.9807692 17.8846154,35.9615385 C17.5961538,36.6346154 17.3076923,37.4038462 17.0192308,38.0769231 C17.0192308,38.0769231 17.0192308,38.1730769 16.9230769,38.2692308 C16.9230769,38.3653846 16.8269231,38.5576923 16.8269231,38.6538462 C16.7307692,38.8461538 16.7307692,38.9423077 16.6346154,39.1346154 L16.6346154,39.2307692 C15.4807692,42.7884615 14.8076923,46.4423077 14.9038462,50.2884615 L14.9038462,50.4807692 L14.9038462,50.9615385 L14.9038462,51.4423077 L14.9038462,51.5384615 C15.0961538,55.3846154 15.8653846,59.1346154 17.2115385,62.5961538 L17.2115385,62.6923077 C17.3076923,62.8846154 17.3076923,63.0769231 17.4038462,63.1730769 C17.5,63.2692308 17.5,63.4615385 17.5961538,63.5576923 C17.5961538,63.6538462 17.5961538,63.6538462 17.6923077,63.75 C19.5192308,68.0769231 22.2115385,71.9230769 25.3846154,75 C25.4807692,75.0961538 25.5769231,75.0961538 25.5769231,75.1923077 L25.6730769,75.2884615 C29.0384615,78.4615385 32.9807692,80.9615385 37.4038462,82.5961538 L37.5,82.5961538 C37.6923077,82.6923077 37.7884615,82.6923077 37.9807692,82.7884615 C38.1730769,82.8846154 38.2692308,82.8846154 38.4615385,82.9807692 L38.5576923,82.9807692 C39.2307692,83.1730769 39.8076923,83.3653846 40.4807692,83.5576923 C43.8461538,84.7115385 47.4038462,84.2307692 50.9615385,84.7115385 C51.6346154,84.7115385 52.3076923,84.6153846 52.8846154,84.6153846 C54.8076923,84.4230769 56.7307692,84.0384615 58.6538462,83.5576923 C59.5192308,83.3653846 60.2884615,83.0769231 61.0576923,82.7884615 C65.0961538,80.9615385 68.9423077,78.6538462 72.3076923,75.8653846 C72.9807692,75.2884615 73.6538462,74.7115385 74.2307692,74.1346154 C82.0192308,67.0192308 85.4807692,56.4423077 83.8461538,46.1538462 C83.75,45.1923077 83.6538462,44.3269231 83.4615385,43.4615385 M73.75,72.9807692 C73.0769231,73.5576923 72.5,74.0384615 71.8269231,74.6153846 C68.5576923,77.3076923 65.0961538,79.7115385 61.25,81.4423077 C60.6730769,81.7307692 60,81.9230769 59.3269231,82.1153846 C58.6538462,82.3076923 57.9807692,82.5 57.3076923,82.6923077 C55.0961538,83.2692308 52.9807692,83.5576923 50.7692308,83.6538462 L50.4807692,83.6538462 L50.1923077,83.6538462 C48.9423077,83.6538462 47.7884615,83.6538462 46.5384615,83.5576923 C45.1923077,83.5576923 44.0384615,83.5576923 42.8846154,83.0769231 C42.2115385,82.9807692 41.5384615,82.7884615 40.7692308,82.5961538 C40.0961538,82.4038462 39.4230769,82.2115385 38.75,82.0192308 L38.6538462,82.0192308 C38.4615385,81.9230769 38.2692308,81.9230769 38.1730769,81.8269231 C38.0769231,81.8269231 37.8846154,81.7307692 37.7884615,81.7307692 C37.6923077,81.7307692 37.6923077,81.7307692 37.5961538,81.6346154 C35.5769231,80.8653846 33.75,80 31.9230769,78.8461538 C29.9038462,77.5961538 27.9807692,76.1538462 26.25,74.5192308 C26.25,74.5192308 26.25,74.5192308 26.1538462,74.4230769 C26.0576923,74.3269231 25.9615385,74.2307692 25.8653846,74.1346154 C24.2307692,72.5 22.6923077,70.7692308 21.4423077,68.8461538 C20.8653846,67.9807692 20.2884615,67.1153846 19.8076923,66.1538462 C19.3269231,65.1923077 18.8461538,64.3269231 18.4615385,63.3653846 C18.2692308,63.1730769 18.2692308,63.1730769 18.2692308,62.7884615 C18.1730769,62.5961538 18.0769231,62.4038462 18.0769231,62.2115385 C18.0769231,62.2115385 18.0769231,62.2115385 18.0769231,62.1153846 C17.5961538,60.7692308 17.1153846,59.4230769 16.8269231,58.0769231 C16.25,55.8653846 15.9615385,53.6538462 15.8653846,51.4423077 L15.8653846,51.3461538 L15.8653846,50.8653846 L15.8653846,50.3846154 L15.8653846,50.2884615 C15.8653846,48.0769231 16.0576923,45.8653846 16.5384615,43.6538462 C16.8269231,42.2115385 17.2115385,40.8653846 17.5961538,39.5192308 C17.5961538,39.5192308 17.5961538,39.5192308 17.5961538,39.4230769 C17.6923077,39.2307692 17.6923077,39.0384615 17.7884615,38.8461538 C17.7884615,38.75 17.8846154,38.6538462 17.8846154,38.4615385 C17.8846154,38.3653846 17.8846154,38.3653846 17.9807692,38.2692308 C18.6538462,36.1538462 19.6153846,34.1346154 20.7692308,32.3076923 C21.3461538,31.3461538 22.0192308,30.4807692 22.6923077,29.6153846 C25.8653846,25 30.8653846,22.2115385 35.8653846,19.6153846 C36.9230769,19.1346154 37.9807692,18.75 39.0384615,18.3653846 C42.2115385,17.3076923 45.4807692,16.6346154 48.75,16.5384615 L49.0384615,16.5384615 L49.3269231,16.5384615 C50.3846154,16.5384615 51.5384615,16.5384615 52.5961538,16.7307692 C53.6538462,16.8269231 54.8076923,17.0192308 55.8653846,17.2115385 C56.5384615,17.3076923 57.2115385,17.5 57.8846154,17.6923077 C63.5576923,19.1346154 68.8461538,22.1153846 72.6923077,25.9615385 C73.5576923,26.8269231 74.3269231,27.6923077 75.0961538,28.5576923 C75.8653846,29.4230769 76.5384615,30.3846154 77.2115385,31.4423077 C78.4615385,33.3653846 79.6153846,35.4807692 80.4807692,37.5961538 C80.4807692,37.6923077 80.5769231,37.7884615 80.5769231,37.9807692 C80.5769231,38.0769231 80.6730769,38.0769231 80.6730769,38.1730769 C81.1538462,39.4230769 81.5384615,40.7692308 81.9230769,42.1153846 C82.2115385,43.1730769 82.4038462,44.3269231 82.5961538,45.3846154 C82.7884615,46.4423077 82.8846154,47.5961538 82.9807692,48.6538462 C84.0384615,57.8846154 80.4807692,67.0192308 73.75,72.9807692" id="Shape" fill="#70A132"></path>
                    <g id="Group" transform="translate(0.000000, 1.923077)" fill="#FFFFFF">
                        <path d="M48.9423077,46.5384615 C48.9423077,46.5384615 42.7884615,28.75 34.7115385,6.92307692 C33.8461538,4.71153846 33.0769231,2.5 32.3076923,0.288461538 C32.1153846,0.384615385 31.9230769,0.480769231 31.6346154,0.576923077 C32.4038462,2.69230769 33.2692308,4.90384615 34.0384615,7.21153846 C42.1153846,28.9423077 48.9423077,46.5384615 48.9423077,46.5384615" id="Shape"></path>
                        <path d="M2.01923077,63.9423077 C2.11538462,64.1346154 2.21153846,64.4230769 2.21153846,64.6153846 C16.6346154,60.7692308 27.5961538,57.5961538 27.5961538,57.5961538 C27.5961538,57.5961538 16.5384615,60.1923077 2.01923077,63.9423077" id="Shape"></path>
                        <path d="M41.8269231,50.5769231 C41.8269231,50.5769231 28.2692308,53.4615385 11.7307692,57.4038462 C7.88461538,58.3653846 4.23076923,59.2307692 0.865384615,60 C0.961538462,60.1923077 0.961538462,60.3846154 1.05769231,60.5769231 C4.42307692,59.8076923 8.07692308,58.9423077 11.9230769,58.0769231 C28.4615385,54.1346154 41.8269231,50.5769231 41.8269231,50.5769231" id="Shape"></path>
                        <path d="M74.4230769,78.5576923 C63.6538462,65.0961538 54.7115385,54.3269231 54.7115385,54.3269231 C54.7115385,54.3269231 63.1730769,65.4807692 73.8461538,78.9423077 C76.25,81.9230769 78.5576923,84.8076923 80.6730769,87.4038462 C80.8653846,87.3076923 80.9615385,87.1153846 81.1538462,87.0192308 C79.0384615,84.4230769 76.8269231,81.5384615 74.4230769,78.5576923" id="Shape"></path>
                        <path d="M68.3653846,64.2307692 C68.3653846,64.2307692 74.9038462,73.2692308 83.75,85 L84.2307692,84.5192308 C75.2884615,72.8846154 68.3653846,64.2307692 68.3653846,64.2307692" id="Shape"></path>
                        <path d="M51.25,54.9038462 C51.25,54.9038462 56.5384615,72.2115385 63.3653846,93.3653846 C63.6538462,94.2307692 63.9423077,95.0961538 64.2307692,95.9615385 C64.4230769,95.8653846 64.7115385,95.8653846 64.9038462,95.7692308 C64.6153846,94.9038462 64.3269231,94.0384615 64.0384615,93.1730769 C57.2115385,71.9230769 51.25,54.9038462 51.25,54.9038462" id="Shape"></path>
                        <path d="M28.3653846,1.92307692 C28.1730769,2.01923077 27.9807692,2.11538462 27.7884615,2.21153846 C32.4038462,11.4423077 35.7692308,17.8846154 35.7692308,17.8846154 C35.7692308,17.8846154 32.7884615,11.3461538 28.3653846,1.92307692" id="Shape"></path>
                        <path d="M83.4615385,33.2692308 C83.4615385,33.2692308 88.5576923,31.1538462 96.1538462,27.7884615 C96.0576923,27.5961538 95.9615385,27.5 95.9615385,27.3076923 C88.4615385,30.7692308 83.4615385,33.2692308 83.4615385,33.2692308" id="Shape"></path>
                        <path d="M48.9423077,67.9807692 C48.9423077,74.0384615 49.2307692,78.9423077 49.2307692,78.9423077 C49.2307692,78.9423077 49.6153846,74.0384615 49.7115385,67.9807692 C49.8076923,61.9230769 49.4230769,57.0192308 49.4230769,57.0192308 C49.4230769,57.0192308 48.9423077,61.9230769 48.9423077,67.9807692" id="Shape"></path>
                        <path d="M48.9423077,46.4423077 C48.9423077,46.4423077 42.8846154,28.5576923 35,6.73076923 C34.2307692,4.51923077 33.3653846,2.30769231 32.5961538,0.0961538462 C32.4038462,0.192307692 32.2115385,0.288461538 31.9230769,0.384615385 C32.6923077,2.5 33.4615385,4.71153846 34.3269231,7.01923077 C42.2115385,28.8461538 48.9423077,46.4423077 48.9423077,46.4423077" id="Shape"></path>
                        <path d="M1.92307692,63.6538462 C2.01923077,63.8461538 2.11538462,64.1346154 2.11538462,64.3269231 C16.5384615,60.5769231 27.5,57.5 27.5,57.5 C27.5,57.5 16.4423077,60 1.92307692,63.6538462" id="Shape"></path>
                        <path d="M41.8269231,50.4807692 C41.8269231,50.4807692 28.2692308,53.2692308 11.6346154,57.1153846 C7.78846154,57.9807692 4.13461538,58.8461538 0.769230769,59.7115385 C0.865384615,59.9038462 0.865384615,60.0961538 0.865384615,60.2884615 C4.23076923,59.5192308 7.88461538,58.75 11.7307692,57.7884615 C28.4615385,53.9423077 41.8269231,50.4807692 41.8269231,50.4807692" id="Shape"></path>
                        <path d="M74.1346154,78.75 C63.4615385,65.1923077 54.6153846,54.4230769 54.6153846,54.4230769 C54.6153846,54.4230769 62.9807692,65.6730769 73.6538462,79.2307692 C76.0576923,82.2115385 78.2692308,85.0961538 80.3846154,87.7884615 C80.5769231,87.6923077 80.6730769,87.5 80.8653846,87.4038462 C78.75,84.6153846 76.5384615,81.7307692 74.1346154,78.75" id="Shape"></path>
                        <path d="M68.1730769,64.3269231 C68.1730769,64.3269231 74.6153846,73.4615385 83.3653846,85.1923077 C83.5576923,85 83.75,84.9038462 83.8461538,84.7115385 C75.0961538,73.0769231 68.1730769,64.3269231 68.1730769,64.3269231" id="Shape"></path>
                        <path d="M51.25,54.9038462 C51.25,54.9038462 56.3461538,72.2115385 63.0769231,93.4615385 C63.3653846,94.3269231 63.6538462,95.1923077 63.9423077,96.0576923 C64.1346154,95.9615385 64.4230769,95.9615385 64.6153846,95.8653846 C64.3269231,95 64.0384615,94.1346154 63.75,93.2692308 C57.0192308,72.0192308 51.25,54.9038462 51.25,54.9038462" id="Shape"></path>
                        <path d="M28.6538462,1.82692308 C28.4615385,1.92307692 28.2692308,2.01923077 28.0769231,2.01923077 C32.5961538,11.3461538 35.8653846,17.7884615 35.8653846,17.7884615 C35.8653846,17.7884615 32.9807692,11.1538462 28.6538462,1.82692308" id="Shape"></path>
                        <path d="M83.5576923,33.4615385 C83.5576923,33.4615385 88.6538462,31.3461538 96.25,28.0769231 C96.1538462,27.8846154 96.1538462,27.7884615 96.0576923,27.5961538 C88.5576923,31.0576923 83.5576923,33.4615385 83.5576923,33.4615385" id="Shape"></path>
                        <path d="M48.75,67.9807692 C48.6538462,74.0384615 48.9423077,78.9423077 48.9423077,78.9423077 C48.9423077,78.9423077 49.4230769,74.0384615 49.4230769,67.9807692 C49.5192308,61.9230769 49.2307692,57.0192308 49.2307692,57.0192308 C49.2307692,57.0192308 48.8461538,61.9230769 48.75,67.9807692" id="Shape"></path>
                    </g>
                </g>
            </g>
        </g>
    </g>
</svg>